<svg xmlns="http://www.w3.org/2000/svg" viewBox="0 0 156 95.65"><defs><style>.cls-1{fill:#717791;}.cls-2,.cls-5,.cls-6,.cls-7,.cls-9{fill:none;stroke:#717791;}.cls-2,.cls-5,.cls-6,.cls-7,.cls-8,.cls-9{stroke-linecap:round;stroke-linejoin:round;}.cls-2{stroke-width:2.5px;}.cls-3{fill:#fff;}.cls-4,.cls-8{fill:#b8d4ff;}.cls-5{stroke-width:2.49px;}.cls-6,.cls-7,.cls-8{stroke-width:2px;}.cls-6{opacity:0.3;}.cls-8{stroke:#96c0ff;}.cls-9{stroke-width:4px;}</style></defs><title>api-none</title><g id="Layer_2" data-name="Layer 2"><g id="Layer_1-2" data-name="Layer 1"><path class="cls-1" d="M141.35,54.42a6.42,6.42,0,0,1,5.11-2.79,9.63,9.63,0,0,1,3,.45,8.77,8.77,0,0,1,2.72,1.33,9.12,9.12,0,1,1-14.43,8.16,1.25,1.25,0,1,1,2.49-.21,6.7,6.7,0,0,0,1.76,4A6.62,6.62,0,0,0,153.24,59a6.63,6.63,0,0,0-2.5-3.55,6.1,6.1,0,0,0-4.16-1.17,13.78,13.78,0,0,0-4.48,1h0a.6.6,0,0,1-.73-.88Z"/><line class="cls-2" x1="85.3" y1="61.61" x2="138.99" y2="61.47"/><path class="cls-2" d="M75.27,60.22"/><path class="cls-1" d="M14.64,68.22A6.42,6.42,0,0,1,9.53,71a9.63,9.63,0,0,1-3-.45,8.77,8.77,0,0,1-2.72-1.33,9.12,9.12,0,1,1,14.43-8.16,1.25,1.25,0,1,1-2.49.21,6.7,6.7,0,0,0-1.76-4A6.62,6.62,0,0,0,2.76,63.64a6.63,6.63,0,0,0,2.5,3.55,6.1,6.1,0,0,0,4.16,1.17,13.78,13.78,0,0,0,4.48-1h0a.6.6,0,0,1,.73.88Z"/><line class="cls-2" x1="70.7" y1="61.02" x2="17" y2="61.16"/><rect class="cls-3" x="32.99" y="25.67" width="89.48" height="68.73" rx="2.42" ry="2.42"/><rect class="cls-4" x="33.89" y="26.27" width="87.7" height="9.07"/><rect class="cls-5" x="32.99" y="25.67" width="89.48" height="68.73" rx="2.42" ry="2.42"/><line class="cls-3" x1="122.47" y1="35.31" x2="42.72" y2="35.31"/><path class="cls-1" d="M122.47,36.31l-19.94.09H82.59l-19.94-.08-10,0a70.14,70.14,0,0,1-10-.47.5.5,0,0,1,0-1,70.14,70.14,0,0,1,10-.47l10,0,19.94-.08h19.94l19.94.09a1,1,0,0,1,0,2Z"/><circle class="cls-1" cx="38.05" cy="30.5" r="1.18"/><circle class="cls-1" cx="42.02" cy="30.5" r="1.18"/><circle class="cls-1" cx="46" cy="30.5" r="1.18"/><line class="cls-6" x1="57.7" y1="58.44" x2="73.72" y2="58.55"/><line class="cls-6" x1="93.38" y1="58.44" x2="111.85" y2="58.56"/><line class="cls-7" x1="81.04" y1="81.65" x2="99.52" y2="81.77"/><line class="cls-8" x1="79.19" y1="58.44" x2="89.71" y2="58.55"/><line class="cls-6" x1="44.66" y1="58.37" x2="51.25" y2="58.41"/><line class="cls-8" x1="67.25" y1="66.16" x2="76.91" y2="66.27"/><line class="cls-6" x1="82.24" y1="66.16" x2="106.81" y2="66.44"/><line class="cls-6" x1="44.66" y1="66.09" x2="60.8" y2="66.14"/><line class="cls-7" x1="67.26" y1="73.89" x2="89.64" y2="74"/><line class="cls-6" x1="44.66" y1="73.81" x2="60.81" y2="73.86"/><line class="cls-6" x1="62.48" y1="81.61" x2="74.81" y2="81.67"/><line class="cls-8" x1="44.67" y1="81.54" x2="54.63" y2="81.57"/><line class="cls-7" x1="44.63" y1="46.48" x2="90" y2="46.67"/><line class="cls-9" x1="73.04" y1="3.17" x2="84.18" y2="14.9"/><line class="cls-9" x1="70.69" y1="14.9" x2="84.76" y2="2"/></g></g></svg>