<svg xmlns="http://www.w3.org/2000/svg" viewBox="0 0 156 99.67"><defs><style>.cls-1{fill:#717791;}.cls-2,.cls-5,.cls-6,.cls-7,.cls-9{fill:none;stroke:#717791;}.cls-2,.cls-5,.cls-6,.cls-7,.cls-8,.cls-9{stroke-linecap:round;stroke-linejoin:round;}.cls-2{stroke-width:2.5px;}.cls-3{fill:#fff;}.cls-4,.cls-8{fill:#b8d4ff;}.cls-5{stroke-width:2.49px;}.cls-6,.cls-7,.cls-8{stroke-width:2px;}.cls-6{opacity:0.3;}.cls-8{stroke:#96c0ff;}.cls-9{stroke-width:4px;}</style></defs><title>api-notsure</title><g id="Layer_2" data-name="Layer 2"><g id="Layer_1-2" data-name="Layer 1"><path class="cls-1" d="M141.35,58.44a6.42,6.42,0,0,1,5.11-2.79,9.63,9.63,0,0,1,3,.45,8.78,8.78,0,0,1,2.72,1.33,9.12,9.12,0,1,1-14.43,8.16,1.25,1.25,0,1,1,2.49-.21,6.7,6.7,0,0,0,1.76,4A6.62,6.62,0,0,0,153.24,63a6.63,6.63,0,0,0-2.5-3.55,6.1,6.1,0,0,0-4.16-1.17,13.78,13.78,0,0,0-4.48,1h0a.6.6,0,0,1-.73-.88Z"/><line class="cls-2" x1="85.3" y1="65.64" x2="138.99" y2="65.5"/><path class="cls-2" d="M75.27,64.25"/><path class="cls-1" d="M14.64,72.25A6.42,6.42,0,0,1,9.53,75a9.63,9.63,0,0,1-3-.45,8.77,8.77,0,0,1-2.72-1.33,9.12,9.12,0,1,1,14.43-8.16,1.25,1.25,0,1,1-2.49.21,6.7,6.7,0,0,0-1.76-4A6.62,6.62,0,0,0,2.76,67.67a6.63,6.63,0,0,0,2.5,3.55,6.1,6.1,0,0,0,4.16,1.17,13.78,13.78,0,0,0,4.48-1h0a.6.6,0,0,1,.78.33A.6.6,0,0,1,14.64,72.25Z"/><line class="cls-2" x1="70.7" y1="65.05" x2="17" y2="65.19"/><rect class="cls-3" x="32.99" y="29.7" width="89.48" height="68.73" rx="2.42" ry="2.42"/><rect class="cls-4" x="33.89" y="30.3" width="87.7" height="9.07"/><rect class="cls-5" x="32.99" y="29.7" width="89.48" height="68.73" rx="2.42" ry="2.42"/><line class="cls-3" x1="122.47" y1="39.34" x2="42.72" y2="39.34"/><path class="cls-1" d="M122.47,40.34l-19.94.09H82.59l-19.94-.08-10,0a70.16,70.16,0,0,1-10-.47.5.5,0,0,1,0-1,70.14,70.14,0,0,1,10-.47l10,0,19.94-.08h19.94l19.94.09a1,1,0,0,1,0,2Z"/><circle class="cls-1" cx="38.05" cy="34.52" r="1.18"/><circle class="cls-1" cx="42.02" cy="34.52" r="1.18"/><circle class="cls-1" cx="46" cy="34.52" r="1.18"/><line class="cls-6" x1="57.7" y1="62.46" x2="73.72" y2="62.57"/><line class="cls-6" x1="93.38" y1="62.46" x2="111.85" y2="62.59"/><line class="cls-7" x1="81.04" y1="85.67" x2="99.52" y2="85.8"/><line class="cls-8" x1="79.19" y1="62.46" x2="89.71" y2="62.57"/><line class="cls-6" x1="44.66" y1="62.39" x2="51.25" y2="62.44"/><line class="cls-8" x1="67.25" y1="70.19" x2="76.91" y2="70.3"/><line class="cls-6" x1="82.24" y1="70.19" x2="106.81" y2="70.47"/><line class="cls-6" x1="44.66" y1="70.12" x2="60.8" y2="70.16"/><line class="cls-7" x1="67.26" y1="77.91" x2="89.64" y2="78.02"/><line class="cls-6" x1="44.66" y1="77.84" x2="60.81" y2="77.89"/><line class="cls-6" x1="62.48" y1="85.64" x2="74.81" y2="85.7"/><line class="cls-8" x1="44.67" y1="85.57" x2="54.63" y2="85.59"/><line class="cls-7" x1="44.63" y1="50.51" x2="90" y2="50.69"/><path class="cls-9" d="M76.52,15.33l.42-3.68s6.93,1.12,6.93-4.32S76.52,2,76.52,2"/><line class="cls-9" x1="76.52" y1="21.33" x2="76.52" y2="21.17"/></g></g></svg>