<svg xmlns="http://www.w3.org/2000/svg" viewBox="0 0 156 71.22"><defs><style>.cls-1{fill:#717791;}.cls-2,.cls-5,.cls-6,.cls-7{fill:none;stroke:#717791;}.cls-2,.cls-5,.cls-6,.cls-7,.cls-8{stroke-linecap:round;stroke-linejoin:round;}.cls-2{stroke-width:2.5px;}.cls-3{fill:#fff;}.cls-4,.cls-8{fill:#b8d4ff;}.cls-5{stroke-width:2.49px;}.cls-6,.cls-7,.cls-8{stroke-width:2px;}.cls-6{opacity:0.3;}.cls-8{stroke:#96c0ff;}</style></defs><title>api</title><g id="Layer_2" data-name="Layer 2"><g id="Layer_1-2" data-name="Layer 1"><path class="cls-1" d="M141.35,30a6.42,6.42,0,0,1,5.11-2.79,9.63,9.63,0,0,1,3,.45A8.77,8.77,0,0,1,152.2,29a9.12,9.12,0,1,1-14.43,8.16,1.25,1.25,0,1,1,2.49-.21,6.7,6.7,0,0,0,1.76,4,6.62,6.62,0,0,0,11.21-6.35,6.63,6.63,0,0,0-2.5-3.55,6.1,6.1,0,0,0-4.16-1.17,13.78,13.78,0,0,0-4.48,1h0a.6.6,0,0,1-.73-.88Z"/><line class="cls-2" x1="85.3" y1="37.18" x2="138.99" y2="37.04"/><path class="cls-2" d="M75.27,35.79"/><path class="cls-1" d="M14.64,43.79a6.42,6.42,0,0,1-5.11,2.79,9.63,9.63,0,0,1-3-.45,8.77,8.77,0,0,1-2.72-1.33,9.12,9.12,0,1,1,14.43-8.16,1.25,1.25,0,1,1-2.49.21,6.7,6.7,0,0,0-1.76-4A6.62,6.62,0,0,0,2.76,39.21a6.63,6.63,0,0,0,2.5,3.55,6.1,6.1,0,0,0,4.16,1.17,13.78,13.78,0,0,0,4.48-1h0a.6.6,0,0,1,.73.88Z"/><line class="cls-2" x1="70.7" y1="36.59" x2="17" y2="36.73"/><rect class="cls-3" x="32.99" y="1.24" width="89.48" height="68.73" rx="2.42" ry="2.42"/><rect class="cls-4" x="33.89" y="1.84" width="87.7" height="9.07"/><rect class="cls-5" x="32.99" y="1.24" width="89.48" height="68.73" rx="2.42" ry="2.42"/><line class="cls-3" x1="122.47" y1="10.88" x2="42.72" y2="10.88"/><path class="cls-1" d="M122.47,11.88,102.53,12H82.59l-19.94-.08-10,0a70.12,70.12,0,0,1-10-.47.5.5,0,0,1,0-1,70.14,70.14,0,0,1,10-.47l10,0,19.94-.08h19.94l19.94.09a1,1,0,0,1,0,2Z"/><circle class="cls-1" cx="38.05" cy="6.06" r="1.18"/><circle class="cls-1" cx="42.02" cy="6.06" r="1.18"/><circle class="cls-1" cx="46" cy="6.06" r="1.18"/><line class="cls-6" x1="57.7" y1="34.01" x2="73.72" y2="34.12"/><line class="cls-6" x1="93.38" y1="34.01" x2="111.85" y2="34.13"/><line class="cls-7" x1="81.04" y1="57.21" x2="99.52" y2="57.34"/><line class="cls-8" x1="79.19" y1="34.01" x2="89.71" y2="34.12"/><line class="cls-6" x1="44.66" y1="33.93" x2="51.25" y2="33.98"/><line class="cls-8" x1="67.25" y1="41.73" x2="76.91" y2="41.84"/><line class="cls-6" x1="82.24" y1="41.73" x2="106.81" y2="42.01"/><line class="cls-6" x1="44.66" y1="41.66" x2="60.8" y2="41.71"/><line class="cls-7" x1="67.26" y1="49.46" x2="89.64" y2="49.56"/><line class="cls-6" x1="44.66" y1="49.38" x2="60.81" y2="49.43"/><line class="cls-6" x1="62.48" y1="57.18" x2="74.81" y2="57.24"/><line class="cls-8" x1="44.67" y1="57.11" x2="54.63" y2="57.14"/><line class="cls-7" x1="44.63" y1="22.05" x2="90" y2="22.23"/></g></g></svg>