<svg xmlns="http://www.w3.org/2000/svg" viewBox="0 0 83.43 103.88"><defs><style>.cls-1{fill:#fff;}.cls-2{fill:#717791;}.cls-3{fill:#b8d4ff;}.cls-4{fill:none;}.cls-4,.cls-5{stroke:#717791;stroke-linecap:round;stroke-linejoin:round;stroke-width:2.5px;}.cls-5{fill:#fdd1be;}.cls-6{fill:#e5eefd;}.cls-7{fill:#a3acd6;}</style></defs><title>branding-full</title><g id="Layer_2" data-name="Layer 2"><g id="Layer_1-2" data-name="Layer 1"><path class="cls-1" d="M71.09,1.27h7.12a3.86,3.86,0,0,1,3.87,3.85l.16,93.54a3.86,3.86,0,0,1-3.85,3.87l-73.08.13A3.86,3.86,0,0,1,1.43,98.8L1.28,5.26A3.86,3.86,0,0,1,5.13,1.39l47.42-.08"/><path class="cls-1" d="M79.91,102.21a3.85,3.85,0,0,1-1.53.32l-73.08.13A3.86,3.86,0,0,1,1.43,98.8L1.28,5.26A3.86,3.86,0,0,1,5.13,1.39l47.42-.08"/><path class="cls-2" d="M80.14,102.73a3.9,3.9,0,0,1-2,.69c-.59.07-1.19.12-1.78.15-1.19.05-2.37,0-3.56,0l-7.12,0-14.23.06L23,103.82l-14.23.06H5.2a5.1,5.1,0,0,1-4-2.08,5,5,0,0,1-.91-2.15,6.13,6.13,0,0,1-.08-1.09V94.11L.06,65.64,0,8.71V5.12a5.14,5.14,0,0,1,2.14-4A5,5,0,0,1,4.31.18a14.36,14.36,0,0,1,2-.07H9.85l14.23,0,14.23,0C43.06.15,47.8-.2,52.55.62a.7.7,0,0,1,0,1.38c-4.74.83-9.49.5-14.23.59l-14.23,0-14.23,0H6.3a14,14,0,0,0-1.57,0,2.48,2.48,0,0,0-1.09.45,2.57,2.57,0,0,0-1.07,2V8.71L2.7,65.64v32a13,13,0,0,0,0,1.57,2.48,2.48,0,0,0,.46,1.1,2.61,2.61,0,0,0,2.06,1.08H72.83c1.19,0,2.37,0,3.56,0,.59,0,1.19.07,1.78.15a5.11,5.11,0,0,0,1.51.05h0a.59.59,0,0,1,.42,1.05Z"/><path class="cls-1" d="M71.09,1.27h7.12a3.86,3.86,0,0,1,3.87,3.85l.15,88.64"/><path class="cls-2" d="M71.09.77A7.75,7.75,0,0,1,74.27.3L77.45.23h.81a5.26,5.26,0,0,1,1,.11,4.87,4.87,0,0,1,3.81,4.19l.1,12.85.2,25.46.05,12.73c0,4.24,0,8.49,0,12.73s-.12,8.49-.21,12.73l-.14,6.36c-.06,2.12-.06,4.24-.21,6.36a.61.61,0,0,1-1.21,0c-.16-2.12-.17-4.24-.23-6.36L81.23,81C81.12,76.79,81,72.55,81,68.3s-.06-8.49-.06-12.73V42.85L81,17.39l0-6.36V6.25c0-.5,0-1.15,0-1.47a2.85,2.85,0,0,0-1.16-1.95,2.81,2.81,0,0,0-1.05-.48,3.23,3.23,0,0,0-.58-.07h-.79l-3.18-.06a7.76,7.76,0,0,1-3.18-.46.55.55,0,0,1,0-1Z"/><polygon class="cls-3" points="76.04 35.54 64.85 24.33 47.09 41.26 38.58 34.18 30.35 41.95 17.16 29.8 8.04 38.62 7.17 45.28 9.19 46.74 74.44 47.19 75.9 45.24 75.97 38.21 76.04 35.54"/><rect class="cls-4" x="7.3" y="8.31" width="68.76" height="38.98" rx="2.57" ry="2.57" transform="translate(-0.05 0.07) rotate(-0.1)"/><polyline class="cls-4" points="7.32 35.88 15.02 28.15 28.1 41.19"/><line class="cls-4" x1="25.78" y1="38.87" x2="26.34" y2="39.44"/><polyline class="cls-4" points="21.99 47.32 37.09 32.16 44.8 39.85"/><path class="cls-2" d="M42.17,42.19a9.67,9.67,0,0,1,2-3l2.43-2.55,4.9-5.07c3.32-3.33,6.62-6.68,10.05-9.9l0,0a1.25,1.25,0,0,1,1.74,0L76.75,35A1.25,1.25,0,0,1,75,36.82L61.57,23.45h1.77c-3.21,3.44-6.54,6.76-9.86,10.09l-5.05,4.92c-1.76,1.57-3.18,3.48-5.53,4.45a.55.55,0,0,1-.72-.71Z"/><circle class="cls-5" cx="27.17" cy="20.89" r="6.41" transform="translate(-0.04 0.05) rotate(-0.1)"/><line class="cls-6" x1="14.01" y1="65.89" x2="71.55" y2="65.79"/><path class="cls-7" d="M14,65.1c4.79-.41,9.59-.49,14.38-.47l14.38.07c4.79,0,9.59.11,14.38.16s9.59.17,14.38.29a.64.64,0,0,1,0,1.29q-7.19.22-14.38.34c-4.79.07-9.59.19-14.38.21l-14.38.12c-4.79,0-9.59,0-14.39-.42a.8.8,0,0,1,0-1.59Z"/><line class="cls-6" x1="36.88" y1="73.84" x2="71.56" y2="73.77"/><path class="cls-7" d="M36.87,73.18a128.64,128.64,0,0,1,17.34-.57c5.78.06,11.56.23,17.34.58a.59.59,0,0,1,0,1.19c-5.78.37-11.56.56-17.34.64a128.68,128.68,0,0,1-17.34-.51.66.66,0,0,1,0-1.32Z"/><line class="cls-6" x1="14.03" y1="73.88" x2="28.62" y2="73.85"/><path class="cls-7" d="M14,73.12a28.93,28.93,0,0,1,7.3-.49c2.43.05,4.87.16,7.3.46a.76.76,0,0,1,0,1.5,73.09,73.09,0,0,1-7.3.48,28.93,28.93,0,0,1-7.3-.46.77.77,0,0,1,0-1.5Z"/><line class="cls-6" x1="64.87" y1="81.77" x2="71.58" y2="81.76"/><path class="cls-7" d="M64.87,81.26a11.57,11.57,0,0,1,3.35-.71,9,9,0,0,1,1.68,0,5.14,5.14,0,0,1,1.68.43.87.87,0,0,1,0,1.56A5.14,5.14,0,0,1,69.9,83a9,9,0,0,1-1.68,0,11.55,11.55,0,0,1-3.36-.69.55.55,0,0,1,0-1Z"/><line class="cls-6" x1="14.04" y1="81.86" x2="55.32" y2="81.78"/><path class="cls-7" d="M14,81.28q5.16-.21,10.32-.34c3.44-.07,6.88-.18,10.32-.22L45,80.57a76.35,76.35,0,0,1,10.32.36.85.85,0,0,1,0,1.69A76.35,76.35,0,0,1,45,83l-10.32-.1c-3.44,0-6.88-.13-10.32-.19s-6.88-.18-10.32-.31a.58.58,0,0,1,0-1.15Z"/><line class="cls-6" x1="14" y1="57.62" x2="55.28" y2="57.55"/><path class="cls-7" d="M14,57q5.16-.21,10.32-.34c3.44-.07,6.88-.18,10.32-.22L45,56.34a76.35,76.35,0,0,1,10.32.36.85.85,0,0,1,0,1.69,76.35,76.35,0,0,1-10.32.4l-10.32-.1c-3.44,0-6.88-.13-10.32-.19S17.44,58.33,14,58.2A.58.58,0,0,1,14,57Z"/><line class="cls-6" x1="62.16" y1="57.53" x2="70.29" y2="57.52"/><path class="cls-7" d="M62.16,57a34.66,34.66,0,0,1,4.07-.54c.68-.06,1.36-.09,2-.12a3.23,3.23,0,0,1,2,.38A1,1,0,0,1,70.62,58a1,1,0,0,1-.33.33,3.23,3.23,0,0,1-2,.39c-.68,0-1.36-.06-2-.12a34.72,34.72,0,0,1-4.07-.53.59.59,0,0,1,0-1.15Z"/><line class="cls-6" x1="14.05" y1="89.84" x2="50.75" y2="89.77"/><path class="cls-7" d="M14.05,89.31c3.06-.19,6.12-.34,9.17-.43s6.12-.2,9.17-.25A146.72,146.72,0,0,1,50.75,89a.73.73,0,0,1,0,1.45A146.82,146.82,0,0,1,32.41,91c-3.06,0-6.12-.12-9.18-.22s-6.12-.22-9.18-.39a.53.53,0,0,1,0-1.06Z"/><line class="cls-1" x1="57.91" y1="1.3" x2="58.32" y2="1.3"/><path class="cls-2" d="M57.91.16,58.31,0a1.3,1.3,0,1,1,0,2.5l-.41-.11a1.18,1.18,0,0,1,0-2.28Z"/></g></g></svg>