<svg xmlns="http://www.w3.org/2000/svg" viewBox="0 0 89.33 67.26"><defs><style>.cls-1{fill:#fff;}.cls-2{fill:#b8d4ff;}.cls-3{fill:none;}.cls-3,.cls-5{stroke:#717791;stroke-linecap:round;stroke-linejoin:round;stroke-width:2.5px;}.cls-4{fill:#717791;}.cls-5{fill:#fdd1be;}</style></defs><title>branding-logo</title><g id="Layer_2" data-name="Layer 2"><g id="Layer_1-2" data-name="Layer 1"><path class="cls-1" d="M84.87,1.51c1.78,0,3.22,1.92,3.21,4.26l-.31,56c0,2.35-1.47,4.25-3.26,4.24L4.46,65.75c-1.78,0-3.22-1.92-3.21-4.26l.31-56C1.58,3.15,3,1.24,4.82,1.25Z"/><polygon class="cls-2" points="9.03 64.99 8.84 65.19 8.12 64.97 9.03 64.99"/><polygon class="cls-2" points="87.46 62.74 85.19 65.94 9.03 64.99 16.64 56.91 29.54 44.13 42.69 55.92 70.53 28.04 87.8 46.68 87.65 51.1 87.46 62.74"/><path class="cls-3" d="M84.87,1.51c1.78,0,3.22,1.92,3.21,4.26l-.31,56c0,2.35-1.47,4.25-3.26,4.24L4.46,65.75c-1.78,0-3.22-1.92-3.21-4.26l.31-56C1.58,3.15,3,1.24,4.82,1.25Z"/><path class="cls-4" d="M7.14,61.1c1.45-1.91,3-3.74,4.55-5.53S14.89,52,16.5,50.28Q21.32,45,26.34,39.92l0,0a1.25,1.25,0,0,1,1.77,0l0,0L40.06,52.7a1.25,1.25,0,0,1-1.83,1.7L26.33,41.63h1.82Q23.33,46.91,18.32,52c-1.67,1.7-3.32,3.42-5,5.08S9.84,60.38,8,61.93a.6.6,0,0,1-.87-.83Z"/><path class="cls-4" d="M35.22,57.66c1.9-3.41,4.76-5.91,7.27-8.74L50.2,40.6c5.2-5.49,10.39-11,15.71-16.37l0,0a1.25,1.25,0,0,1,1.77,0l0,0L88.44,46.47a1.25,1.25,0,1,1-1.83,1.7L65.9,25.94h1.82C62.63,31.54,57.41,37,52.21,42.5l-7.89,8.15c-2.69,2.66-5,5.64-8.36,7.71a.53.53,0,0,1-.74-.7Z"/><path class="cls-5" d="M36.55,18.2a8.36,8.36,0,0,1-8.12,8.56,8.31,8.31,0,0,1-8-8.61A8.36,8.36,0,0,1,28.53,9.6,8.31,8.31,0,0,1,36.55,18.2Z"/></g></g></svg>