<svg xmlns="http://www.w3.org/2000/svg" viewBox="0 0 88.66 90.48"><defs><style>.cls-1{fill:#fff;}.cls-2{fill:#b8d4ff;}.cls-3,.cls-6{fill:none;}.cls-3,.cls-5,.cls-6{stroke:#717791;stroke-linecap:round;stroke-linejoin:round;}.cls-3,.cls-5{stroke-width:2.5px;}.cls-4{fill:#717791;}.cls-5{fill:#fdd1be;}.cls-6{stroke-width:4px;}</style></defs><title>branding-none</title><g id="Layer_2" data-name="Layer 2"><g id="Layer_1-2" data-name="Layer 1"><path class="cls-1" d="M84.23,25.23c1.77,0,3.2,1.9,3.19,4.23L87.11,85c0,2.33-1.46,4.22-3.23,4.21L4.44,89c-1.77,0-3.2-1.9-3.19-4.23l.31-55.56C1.57,26.85,3,25,4.79,25Z"/><polygon class="cls-2" points="8.97 88.22 8.78 88.42 8.07 88.2 8.97 88.22"/><polygon class="cls-2" points="86.8 85.99 84.54 89.17 8.97 88.22 16.52 80.2 29.32 67.52 42.37 79.22 70 51.55 87.14 70.05 86.99 74.44 86.8 85.99"/><path class="cls-3" d="M84.23,25.23c1.77,0,3.2,1.9,3.19,4.23L87.11,85c0,2.33-1.46,4.22-3.23,4.21L4.44,89c-1.77,0-3.2-1.9-3.19-4.23l.31-55.56C1.57,26.85,3,25,4.79,25Z"/><path class="cls-4" d="M7.09,84.36c1.43-1.9,3-3.71,4.51-5.49s3.18-3.5,4.78-5.24q4.78-5.23,9.76-10.28l0,0a1.25,1.25,0,0,1,1.77,0l0,0L39.77,76a1.25,1.25,0,1,1-1.83,1.7L26.13,65H28q-4.78,5.23-9.76,10.29c-1.66,1.68-3.29,3.39-5,5S9.78,83.65,8,85.18a.6.6,0,0,1-.87-.83Z"/><path class="cls-4" d="M35,80.94c1.88-3.39,4.72-5.87,7.21-8.68L49.81,64C55,58.56,60.12,53.1,65.4,47.76l0,0a1.25,1.25,0,0,1,1.77,0l0,0L87.78,69.84A1.25,1.25,0,0,1,86,71.54L65.39,49.48h1.82c-5,5.55-10.22,11-15.39,16.43L44,74c-2.67,2.64-5,5.6-8.3,7.64a.53.53,0,0,1-.74-.7Z"/><path class="cls-5" d="M36.28,41.79a8.3,8.3,0,0,1-8.05,8.49,8.25,8.25,0,0,1-8-8.54,8.3,8.3,0,0,1,8.05-8.49A8.25,8.25,0,0,1,36.28,41.79Z"/><line class="cls-6" x1="41.37" y1="3.17" x2="52.5" y2="14.9"/><line class="cls-6" x1="39.02" y1="14.9" x2="53.09" y2="2"/></g></g></svg>