<svg xmlns="http://www.w3.org/2000/svg" viewBox="0 0 95.68 71.47"><defs><style>.cls-1{fill:#fff;}.cls-2{fill:#b8d4ff;}.cls-3{fill:none;stroke:#717791;stroke-linecap:round;stroke-linejoin:round;stroke-width:2.2px;}.cls-4{fill:#717791;}.cls-5{fill:#96c0ff;}</style></defs><title>design-amazing</title><g id="Layer_2" data-name="Layer 2"><g id="Layer_1-2" data-name="Layer 1"><rect class="cls-1" x="1.1" y="1.1" width="93.48" height="69.27" rx="3.48" ry="3.48"/><rect class="cls-2" x="2.04" y="1.72" width="91.62" height="9.47"/><rect class="cls-3" x="1.1" y="1.1" width="93.48" height="69.27" rx="3.48" ry="3.48"/><line class="cls-1" x1="94.58" y1="11.17" x2="11.26" y2="11.17"/><path class="cls-4" d="M94.58,12.27l-20.83.1H52.92l-20.83-.09-10.41,0a69.64,69.64,0,0,1-10.41-.51.55.55,0,0,1,0-1.09,69.64,69.64,0,0,1,10.41-.51l10.41,0L52.92,10H73.75l20.83.1a1.1,1.1,0,0,1,0,2.2Z"/><circle class="cls-4" cx="6.39" cy="6.14" r="1.23"/><circle class="cls-4" cx="10.54" cy="6.14" r="1.23"/><circle class="cls-4" cx="14.69" cy="6.14" r="1.23"/><path class="cls-1" d="M46.73,35.18c1,0,1.32.77,1.32,1.73l0,21.66c0,1-.33,1.73-1.31,1.74l-34.71.09c-1,0-1.32-.77-1.32-1.73l0-21.66c0-1,.33-1.73,1.31-1.74Z"/><path class="cls-2" d="M46.73,35.18c1,0,1.32.77,1.32,1.73l0,21.66c0,1-.33,1.73-1.31,1.74l-34.71.09c-1,0-1.32-.77-1.32-1.73l0-21.66c0-1,.33-1.73,1.31-1.74Z"/><polygon class="cls-5" points="48.06 52.42 48 54.23 47.95 58.97 47.42 60.27 13.08 60.06 13.08 60.06 13.08 60.05 16.23 56.75 21.96 51.52 27.88 56.29 40.27 44.88 48.06 52.42"/><polygon class="cls-2" points="13.08 60.05 13.08 60.06 13.08 60.06 13.08 60.05"/><circle class="cls-1" cx="22.46" cy="42.17" r="3.48" transform="translate(-0.07 0.04) rotate(-0.1)"/><rect class="cls-2" x="10.18" y="21.07" width="77.55" height="6.25" rx="1.81" ry="1.81"/><path class="cls-5" d="M54.68,37c5.11-.12,10.22-.12,15.33-.1l7.67.09a39,39,0,0,1,7.67.57.53.53,0,0,1,0,1,39,39,0,0,1-7.67.57L70,39.27c-5.11,0-10.22,0-15.33-.1a1.09,1.09,0,0,1,0-2.17Z"/><path class="cls-5" d="M54.68,56.62c3-.12,6.06-.12,9.09-.1l4.55.09a14,14,0,0,1,4.55.57.55.55,0,0,1,0,1,14,14,0,0,1-4.55.57l-4.55.09c-3,0-6.06,0-9.09-.1a1.09,1.09,0,0,1,0-2.17Z"/><path class="cls-5" d="M71.72,47a16.86,16.86,0,0,1,3.41-.57c1.14-.08,2.27-.12,3.41-.13s2.27,0,3.41.09a17.15,17.15,0,0,1,3.41.43.68.68,0,0,1,0,1.32,17.14,17.14,0,0,1-3.41.43c-1.14,0-2.27.09-3.41.09s-2.27-.05-3.41-.13A16.86,16.86,0,0,1,71.72,48a.51.51,0,0,1-.35-.63A.51.51,0,0,1,71.72,47Z"/><path class="cls-5" d="M54.06,47a16.86,16.86,0,0,1,3.41-.57c1.14-.08,2.27-.12,3.41-.13s2.27,0,3.41.09a17.15,17.15,0,0,1,3.41.43.68.68,0,0,1,0,1.32,17.15,17.15,0,0,1-3.41.43c-1.14,0-2.27.09-3.41.09s-2.27-.05-3.41-.13A16.86,16.86,0,0,1,54.06,48a.51.51,0,0,1,0-1Z"/></g></g></svg>