<svg xmlns="http://www.w3.org/2000/svg" viewBox="0 0 91.97 71.22"><defs><style>.cls-1{fill:#fff;}.cls-2,.cls-7{fill:#b8d4ff;}.cls-3,.cls-5,.cls-6{fill:none;stroke:#717791;}.cls-3,.cls-5,.cls-6,.cls-7{stroke-linecap:round;stroke-linejoin:round;}.cls-3{stroke-width:2.49px;}.cls-4{fill:#717791;}.cls-5,.cls-6,.cls-7{stroke-width:2px;}.cls-5{opacity:0.3;}.cls-7{stroke:#96c0ff;}</style></defs><title>design-stock</title><g id="Layer_2" data-name="Layer 2"><g id="Layer_1-2" data-name="Layer 1"><rect class="cls-1" x="1.24" y="1.24" width="89.48" height="68.73" rx="2.42" ry="2.42"/><rect class="cls-2" x="2.14" y="1.84" width="87.7" height="9.07"/><rect class="cls-3" x="1.24" y="1.24" width="89.48" height="68.73" rx="2.42" ry="2.42"/><line class="cls-1" x1="90.72" y1="10.88" x2="10.97" y2="10.88"/><path class="cls-4" d="M90.72,11.88,70.78,12H50.85l-19.94-.08-10,0a70.15,70.15,0,0,1-10-.47.5.5,0,0,1,0-1,70.15,70.15,0,0,1,10-.47l10,0,19.94-.08H70.78l19.94.09a1,1,0,0,1,0,2Z"/><circle class="cls-4" cx="6.3" cy="6.06" r="1.18"/><circle class="cls-4" cx="10.28" cy="6.06" r="1.18"/><circle class="cls-4" cx="14.25" cy="6.06" r="1.18"/><line class="cls-5" x1="25.96" y1="34.01" x2="41.98" y2="34.12"/><line class="cls-5" x1="61.63" y1="34.01" x2="80.11" y2="34.13"/><line class="cls-6" x1="49.3" y1="57.21" x2="67.77" y2="57.34"/><line class="cls-7" x1="47.44" y1="34.01" x2="57.96" y2="34.12"/><line class="cls-5" x1="12.91" y1="33.93" x2="19.51" y2="33.98"/><line class="cls-7" x1="35.51" y1="41.73" x2="45.16" y2="41.84"/><line class="cls-5" x1="50.49" y1="41.73" x2="75.07" y2="42.01"/><line class="cls-5" x1="12.91" y1="41.66" x2="29.06" y2="41.71"/><line class="cls-6" x1="35.51" y1="49.46" x2="57.89" y2="49.56"/><line class="cls-5" x1="12.92" y1="49.38" x2="29.06" y2="49.43"/><line class="cls-5" x1="30.74" y1="57.18" x2="43.06" y2="57.24"/><line class="cls-7" x1="12.92" y1="57.11" x2="22.89" y2="57.14"/><line class="cls-6" x1="12.88" y1="22.05" x2="58.26" y2="22.23"/></g></g></svg>