<svg xmlns="http://www.w3.org/2000/svg" viewBox="0 0 82.18 89.82"><defs><style>.cls-1{fill:#fff;}.cls-2{fill:#e5eefd;}.cls-3{fill:#717791;}.cls-4{fill:#b8d4ff;}.cls-5{fill:none;stroke:#717791;stroke-linecap:round;stroke-linejoin:round;stroke-width:4px;}</style></defs><title>login-none</title><g id="Layer_2" data-name="Layer 2"><g id="Layer_1-2" data-name="Layer 1"><path class="cls-1" d="M10.53,38V24.78a23.11,23.11,0,0,1,46.21,0V49.7a3.9,3.9,0,0,1-3.9,3.9H14.43a3.9,3.9,0,0,1-3.9-3.9V38m7.8,7.8H48.94v-21a15.31,15.31,0,0,0-30.62,0Z"/><path class="cls-2" d="M10.53,38.41V24.78a23.11,23.11,0,0,1,46.21,0V49.7a3.9,3.9,0,0,1-3.9,3.9H14.43a3.9,3.9,0,0,1-3.9-3.9V44.26M46,15.75a15.3,15.3,0,0,0-27.66,9v21H48.94v-21a15.37,15.37,0,0,0-.17-2.3"/><path class="cls-3" d="M10.14,38.41C9,34.93,9.07,31.45,9.06,28l0-2.61c0-.85.06-1.83.09-2.74s.25-1.84.37-2.76.42-1.81.71-2.69a25.17,25.17,0,0,1,5.65-9.51,24.37,24.37,0,0,1,9.26-6.11A24.51,24.51,0,0,1,46.67,3.71,24.75,24.75,0,0,1,58.27,22c.09.93.11,1.87.16,2.79v7.84l0,10.45v6.53a5.89,5.89,0,0,1-.28,1.8,5.57,5.57,0,0,1-2.21,2.89,5.43,5.43,0,0,1-1.69.74,5.19,5.19,0,0,1-.91.15l-.45,0H44.66c-7,0-13.93,0-20.9-.2l-5.22-.12-2.61-.06-1.31,0A5.47,5.47,0,0,1,13,54.55a5,5,0,0,1-3.34-3.49,5.24,5.24,0,0,1-.16-1.58l.17-5.22a.86.86,0,0,1,1.71,0l.17,5.22a2.83,2.83,0,0,0,2.1,2.84,3.15,3.15,0,0,0,1,.08l1.31,0,2.61-.06,5.22-.12c7-.18,13.93-.19,20.9-.2H53a2,2,0,0,0,.37-.06,2.17,2.17,0,0,0,.69-.3A2.31,2.31,0,0,0,55,50.4a2.56,2.56,0,0,0,.11-.78V43.1l0-10.45V24.81C55,24,55,23.19,54.9,22.39A21.38,21.38,0,0,0,26.27,4.68a21.2,21.2,0,0,0-8.1,5.2,22,22,0,0,0-5,8.23c-.26.77-.43,1.57-.65,2.35s-.29,1.6-.36,2.41S12,24.46,12,25.35L12,28c0,3.48,0,7-1.07,10.45a.41.41,0,0,1-.51.27A.41.41,0,0,1,10.14,38.41Z"/><path class="cls-3" d="M45.67,16c-1.18-.62-2.14-1.27-3.1-1.89a22.06,22.06,0,0,0-2.88-1.74,13.54,13.54,0,0,0-6.49-1.3,13.77,13.77,0,0,0-11,6.42,13.43,13.43,0,0,0-2,6.19c-.07,1,0,2.34,0,3.57V45.8L18.32,44c5.1,0,10.2,0,15.31,0s10.2.06,15.31.15h0L47.35,45.8c.07-3.89.19-7.77.3-11.66.06-1.94.1-3.89.18-5.83l.11-2.92c0-1,0-1.84,0-2.78v-.17a.85.85,0,0,1,1.69-.09c.11,1,.31,2.08.32,3l.11,2.92c.09,1.94.13,3.89.18,5.83.11,3.89.23,7.77.3,11.66A1.56,1.56,0,0,1,49,47.39h-.06c-5.1.09-10.2.11-15.31.15s-10.2.05-15.31,0a1.79,1.79,0,0,1-1.79-1.79V27.23c0-1.25,0-2.42.1-3.86A16.88,16.88,0,0,1,33.1,7.94,16.57,16.57,0,0,1,41,9.71,12.88,12.88,0,0,1,44.32,12a7.15,7.15,0,0,1,2,3.51.43.43,0,0,1-.62.47Z"/><path class="cls-1" d="M1.69,60.53V51.44a7.67,7.67,0,0,1,7.67-7.67H57.9a7.67,7.67,0,0,1,7.67,7.67v29a7.67,7.67,0,0,1-7.67,7.67H9.37a7.67,7.67,0,0,1-7.67-7.67V60.53"/><path class="cls-3" d="M.78,53a12,12,0,0,1-.27-1.41,7.27,7.27,0,0,1,0-1.63,7.76,7.76,0,0,1,1.09-3.13,9.13,9.13,0,0,1,5.15-4l.81-.21.83-.13c.28,0,.56,0,.84-.05s.48,0,.73,0h2.83l5.65,0L41,42.22l11.31,0H58a9.3,9.3,0,0,1,9.16,8.51l0,.84v4.95l0,11.31V80.51l0,.86-.13.85a9.4,9.4,0,0,1-6.68,7.24,9.64,9.64,0,0,1-1.7.31l-.86,0H9A9.35,9.35,0,0,1,0,81c0-.62,0-1,0-1.52s0-.94.09-1.41a16.09,16.09,0,0,1,.48-2.83,1.16,1.16,0,0,1,2.23,0,16.09,16.09,0,0,1,.48,2.83c0,.47.07.94.09,1.41s0,1,0,1.31a6,6,0,0,0,1.79,3.91,5.88,5.88,0,0,0,4,1.68H57.88l.56,0a6.24,6.24,0,0,0,1.08-.2,6,6,0,0,0,4.24-4.6l.08-.54,0-.55V67.77l0-11.31V51.52l0-.57A6,6,0,0,0,58,45.39l-5.63,0L41,45.32l-22.62-.08-5.65,0H9.94c-.51,0-.88,0-1.26,0l-.57.08-.56.14A6.29,6.29,0,0,0,4,48.23a8.22,8.22,0,0,0-.87,2.13c-.11.38-.17.75-.25,1.18A12,12,0,0,1,2.61,53,1,1,0,0,1,.78,53Z"/><path class="cls-3" d="M.19,62.35a6.68,6.68,0,0,1,.15-1.54,9.54,9.54,0,0,1,.43-1.54,1,1,0,0,1,1.84,0A9.54,9.54,0,0,1,3,60.81a6.68,6.68,0,0,1,.15,1.54,1.5,1.5,0,0,1-3,0Z"/><path class="cls-4" d="M31.24,75.16h5.13V65.47a4.83,4.83,0,1,0-5.49,0v3.05"/><path class="cls-3" d="M31.24,74.41l5.13-.75-1.5,1.5v-9.7a1.48,1.48,0,0,1,.65-1.21,3.33,3.33,0,1,0-3.79,0h0l.24.19a1.09,1.09,0,0,1,.4,1l-.52,3.05a1,1,0,0,1-2,0l-.52-3.05L30,66.71l0,0a6.33,6.33,0,1,1,7.22,0l.65-1.23v9.89a1.31,1.31,0,0,1-1.31,1.31h-.19l-5.13-.75a.75.75,0,0,1,0-1.49Z"/><line class="cls-5" x1="68.45" y1="22.79" x2="79.59" y2="34.51"/><line class="cls-5" x1="66.11" y1="34.51" x2="80.18" y2="21.61"/></g></g></svg>