<svg xmlns="http://www.w3.org/2000/svg" viewBox="0 0 91.2 60.86"><defs><style>.cls-1{fill:#fff;}.cls-2{fill:#717791;}.cls-3{fill:none;stroke:#717791;stroke-linecap:round;stroke-linejoin:round;stroke-width:2.5px;}</style></defs><title>login-email</title><g id="Layer_2" data-name="Layer 2"><g id="Layer_1-2" data-name="Layer 1"><path class="cls-1" d="M89.89,12.9l0,42.47a4.08,4.08,0,0,1-4.08,4.09l-80.37.09A4.08,4.08,0,0,1,1.4,55.46l-.05-50A4.08,4.08,0,0,1,5.43,1.37l80.37-.09a4.07,4.07,0,0,1,1.76.4"/><path class="cls-2" d="M90.48,12.9a38.17,38.17,0,0,1,.67,8.57V30l0,17.14v7.5c0,.36,0,.67,0,1.19a5.37,5.37,0,0,1-3.1,4.37,5.14,5.14,0,0,1-1.34.41,7.09,7.09,0,0,1-1.28.08H83.32l-17.14,0-34.28.05-17.14,0H6.18c-.36,0-.67,0-1.19,0A5.38,5.38,0,0,1,.16,56.35,17.73,17.73,0,0,1,.08,54L0,19.71V6.86A15.51,15.51,0,0,1,.09,4.47,5.43,5.43,0,0,1,3.62.34,5.23,5.23,0,0,1,5,0c.53,0,.79,0,1.17,0H19L53.33.05l17.14,0h15a6.4,6.4,0,0,1,1.28.09,5.24,5.24,0,0,1,1.31.43,1.18,1.18,0,0,1-1,2.13h0a2.89,2.89,0,0,0-.72-.23,4.08,4.08,0,0,0-.85,0H83.33L79,2.49l-8.57,0-17.14.06L19,2.71H6.19a4.39,4.39,0,0,0-1.67.16A2.73,2.73,0,0,0,2.74,5a15.56,15.56,0,0,0,0,1.9V19.71L2.72,54a18.45,18.45,0,0,0,0,1.92,2.74,2.74,0,0,0,1.76,2.13,4,4,0,0,0,1.65.18H31.89l34.28,0H85.46a4.58,4.58,0,0,0,.86,0,2.6,2.6,0,0,0,.7-.21,2.82,2.82,0,0,0,1.63-2.29V21.47a38.17,38.17,0,0,1,.65-8.57.6.6,0,0,1,1.18,0Z"/><path class="cls-3" d="M88.24,2.09,52,30.11a10.83,10.83,0,0,1-13.49,0L2.78,2.62"/><path class="cls-2" d="M37.61,31.06c-2.54,3.23-5.24,6.31-8,9.38Q27.6,42.73,25.5,45a16.81,16.81,0,0,1-4.74,4,.41.41,0,0,1-.57-.5,16.81,16.81,0,0,1,3.37-5.22q2-2.38,4-4.71c2.68-3.1,5.39-6.18,8.26-9.12a1.23,1.23,0,0,1,1.84,1.61Z"/><path class="cls-2" d="M59.69,35.21A14.31,14.31,0,0,1,63,38.11c1,1,2,2.09,3,3.19s1.88,2.21,2.78,3.34A18.79,18.79,0,0,1,71,48.39a.48.48,0,0,1-.25.63.49.49,0,0,1-.44,0,18.79,18.79,0,0,1-3.44-2.77c-1-1-2-2.08-3-3.18s-1.87-2.21-2.79-3.34a14.3,14.3,0,0,1-2.45-3.63.7.7,0,0,1,1-.87Z"/></g></g></svg>