<svg xmlns="http://www.w3.org/2000/svg" viewBox="0 0 76.57 89.18"><defs><style>.cls-1{fill:#fff;}.cls-2{fill:#e5eefd;}.cls-3{fill:#717791;}.cls-4{fill:#b8d4ff;}.cls-5{fill:none;stroke:#717791;stroke-linecap:round;stroke-linejoin:round;stroke-width:4px;}</style></defs><title>login-notsure</title><g id="Layer_2" data-name="Layer 2"><g id="Layer_1-2" data-name="Layer 1"><path class="cls-1" d="M10.46,37.73V24.61a22.93,22.93,0,0,1,45.87,0V49.34a3.87,3.87,0,0,1-3.87,3.87H14.33a3.87,3.87,0,0,1-3.87-3.87V37.73m7.74,7.74H48.59V24.61a15.2,15.2,0,1,0-30.39,0Z"/><path class="cls-2" d="M10.46,38.14V24.61a22.93,22.93,0,0,1,45.87,0V49.34a3.87,3.87,0,0,1-3.87,3.87H14.33a3.87,3.87,0,0,1-3.87-3.87v-5.4m35.19-28.3a15.19,15.19,0,0,0-27.46,9V45.47H48.59V24.61a15.25,15.25,0,0,0-.17-2.28"/><path class="cls-3" d="M10.07,38.14C9,34.68,9,31.23,9,27.77l0-2.59c0-.85.06-1.82.09-2.72s.25-1.83.37-2.74.42-1.8.7-2.68a25,25,0,0,1,5.61-9.44,24.2,24.2,0,0,1,9.19-6.07,24.34,24.34,0,0,1,21.4,2.15A24.58,24.58,0,0,1,57.86,21.86c.09.92.11,1.85.16,2.78v7.78l0,10.37v6.48a5.86,5.86,0,0,1-.28,1.79,5.54,5.54,0,0,1-2.2,2.87,5.4,5.4,0,0,1-1.68.74,5.16,5.16,0,0,1-.91.15l-.45,0h-8.1c-6.91,0-13.83,0-20.74-.2l-5.19-.12-2.59-.06-1.3,0a5.44,5.44,0,0,1-1.61-.24A5,5,0,0,1,9.6,50.7a5.21,5.21,0,0,1-.16-1.57l.17-5.19a.86.86,0,0,1,1.71,0l.17,5.19a2.8,2.8,0,0,0,2.08,2.81,3.12,3.12,0,0,0,1,.08l1.3,0,2.59-.06,5.19-.12c6.91-.18,13.83-.19,20.74-.2h8.3a1.93,1.93,0,0,0,.37-.06,2.14,2.14,0,0,0,.68-.3A2.28,2.28,0,0,0,54.58,50a2.53,2.53,0,0,0,.11-.77V42.79l0-10.37V24.64c-.05-.8-.06-1.6-.15-2.4A21.21,21.21,0,0,0,26.1,4.67a21,21,0,0,0-8,5.15,21.86,21.86,0,0,0-5,8.17c-.26.76-.43,1.55-.65,2.33s-.29,1.59-.35,2.39-.12,1.58-.11,2.46l0,2.59c0,3.46,0,6.91-1.07,10.37a.41.41,0,0,1-.78,0Z"/><path class="cls-3" d="M45.34,15.88c-1.18-.62-2.13-1.25-3.08-1.87a22,22,0,0,0-2.86-1.72A13.43,13.43,0,0,0,33,11,13.65,13.65,0,0,0,22,17.36a13.31,13.31,0,0,0-2,6.14c-.07,1,0,2.32,0,3.54V45.47L18.2,43.68c5.06,0,10.13,0,15.19,0s10.13.06,15.19.15h0L47,45.47c.07-3.86.19-7.72.3-11.58.06-1.93.1-3.86.18-5.79l.11-2.89c0-1,0-1.82,0-2.76v-.17a.85.85,0,0,1,1.69-.09c.11,1,.31,2.06.32,3l.11,2.89c.09,1.93.13,3.86.18,5.79.11,3.86.23,7.72.3,11.58a1.56,1.56,0,0,1-1.54,1.59h-.06c-5.06.09-10.13.11-15.19.15s-10.13.05-15.19,0a1.79,1.79,0,0,1-1.79-1.79V27c0-1.24,0-2.4.09-3.83A16.76,16.76,0,0,1,32.87,7.89,16.46,16.46,0,0,1,40.7,9.64,12.78,12.78,0,0,1,44,11.92a7.07,7.07,0,0,1,2,3.49.43.43,0,0,1-.62.47Z"/><path class="cls-1" d="M1.69,60.09v-9a7.61,7.61,0,0,1,7.61-7.61H57.48a7.61,7.61,0,0,1,7.61,7.61V79.86a7.61,7.61,0,0,1-7.61,7.61H9.31a7.61,7.61,0,0,1-7.61-7.61V60.09"/><path class="cls-3" d="M.78,52.57a11.85,11.85,0,0,1-.27-1.4,7.21,7.21,0,0,1,0-1.62,7.7,7.7,0,0,1,1.08-3.11,9.08,9.08,0,0,1,5.12-4l.81-.21.82-.13c.28,0,.55,0,.83-.05s.48,0,.73,0h2.81l5.61,0,22.45-.08,11.22,0h5.63a9.25,9.25,0,0,1,9.1,8.46l0,.83v4.91l0,11.22V79.92l0,.86-.13.85A9.34,9.34,0,0,1,60,88.83a9.59,9.59,0,0,1-1.69.31l-.85,0H9a9.29,9.29,0,0,1-9-8.72,15.06,15.06,0,0,1,0-1.51c0-.47,0-.94.09-1.4a15.86,15.86,0,0,1,.48-2.81,1.16,1.16,0,0,1,2.23,0,15.86,15.86,0,0,1,.48,2.81c0,.47.07.94.09,1.4s0,1,0,1.3a5.91,5.91,0,0,0,1.78,3.87,5.83,5.83,0,0,0,3.92,1.66H57.46l.55,0a6.17,6.17,0,0,0,1.07-.2A5.93,5.93,0,0,0,63.28,81l.08-.54,0-.55V67.28l0-11.22V51.15l0-.57a6,6,0,0,0-5.85-5.51L52,45,40.75,45,18.3,44.93l-5.61,0H9.88c-.5,0-.88,0-1.25,0L8.07,45l-.55.14A6.23,6.23,0,0,0,4,47.89,8.18,8.18,0,0,0,3.13,50c-.11.38-.16.74-.25,1.17a11.85,11.85,0,0,1-.27,1.4,1,1,0,0,1-1.84,0Z"/><path class="cls-3" d="M.19,61.9a6.59,6.59,0,0,1,.15-1.53,9.4,9.4,0,0,1,.43-1.53,1,1,0,0,1,1.84,0A9.4,9.4,0,0,1,3,60.37a6.58,6.58,0,0,1,.15,1.53,1.5,1.5,0,0,1-3,0Z"/><path class="cls-4" d="M31,74.61h5.1V65a4.79,4.79,0,1,0-5.45,0v3"/><path class="cls-3" d="M31,73.87l5.1-.75-1.5,1.5V65a1.48,1.48,0,0,1,.65-1.21,3.29,3.29,0,1,0-3.75,0h0l.24.19a1.09,1.09,0,0,1,.4,1l-.52,3a1,1,0,0,1-2,0l-.52-3,.65,1.23,0,0a6.29,6.29,0,1,1,7.18,0L37.62,65v9.82a1.31,1.31,0,0,1-1.31,1.31h-.19L31,75.36a.75.75,0,0,1,0-1.49Z"/><path class="cls-5" d="M67.22,31l.42-3.68s6.93,1.12,6.93-4.32-7.35-5.33-7.35-5.33"/><line class="cls-5" x1="67.22" y1="35.99" x2="67.22" y2="35.83"/></g></g></svg>