<svg xmlns="http://www.w3.org/2000/svg" viewBox="0 0 113.24 91.73"><defs><style>.cls-1,.cls-5{fill:#fff;}.cls-2{fill:#717791;}.cls-3{fill:#a9ebc8;}.cls-4{fill:none;}.cls-4,.cls-5{stroke:#717791;stroke-linecap:round;stroke-linejoin:round;stroke-width:2.5px;}.cls-6{fill:#e5eefd;}.cls-7{fill:#a3acd6;}</style></defs><title>login-social</title><g id="Layer_2" data-name="Layer 2"><g id="Layer_1-2" data-name="Layer 1"><path class="cls-1" d="M98.36,90.46h7.24A6.35,6.35,0,0,0,112,84.1V55.86a6.35,6.35,0,0,0-6.35-6.35H44.69"/><path class="cls-2" d="M98.36,89.21h7.27a5.12,5.12,0,0,0,4.63-3,4.93,4.93,0,0,0,.4-1.4,6.22,6.22,0,0,0,.05-.74V55.87a5.57,5.57,0,0,0-.21-1.44A5.12,5.12,0,0,0,108.95,52a5,5,0,0,0-2.62-1.19,6,6,0,0,0-.73-.06h-2.73l-29.09,0H59.24l-7.27,0-3.64,0a14.51,14.51,0,0,1-3.64-.36.9.9,0,0,1,0-1.74,14.51,14.51,0,0,1,3.64-.36l3.64,0,7.27,0H73.78l29.09,0h2.73a8.5,8.5,0,0,1,1.08.08,7.6,7.6,0,0,1,6.22,5.39,8.07,8.07,0,0,1,.31,2.14V84.05a8.79,8.79,0,0,1-.08,1.07,7.43,7.43,0,0,1-.59,2.09,7.63,7.63,0,0,1-6.9,4.49H98.36a1.25,1.25,0,1,1,0-2.5Z"/><path class="cls-1" d="M49.43,49.51H7.61a6.35,6.35,0,0,0-6.35,6.35V84.1a6.35,6.35,0,0,0,6.35,6.35H86.29"/><path class="cls-2" d="M49.43,50.76l-42.11,0A5.07,5.07,0,0,0,2.69,54.5a7.76,7.76,0,0,0-.19,2.28V83.14a8.06,8.06,0,0,0,.18,2.29,5.08,5.08,0,0,0,4.6,3.76c.31,0,.82,0,1.24,0H23l21.09,0H65.2l10.54,0H81a25,25,0,0,1,5.27.36.89.89,0,0,1,0,1.74,25,25,0,0,1-5.27.36H75.75l-10.54,0H44.12L23,91.71H8.53c-.46,0-.83,0-1.39,0a7.58,7.58,0,0,1-6.86-5.6A10.46,10.46,0,0,1,0,83.14V56.78a10.2,10.2,0,0,1,.28-2.95,7.57,7.57,0,0,1,6.9-5.56l42.24,0a1.25,1.25,0,1,1,0,2.5Z"/><path class="cls-3" d="M34.21,69.93a10.85,10.85,0,0,1-2.29,6.69,10.9,10.9,0,0,0-17.21,0,10.9,10.9,0,1,1,19.51-6.69Z"/><path class="cls-4" d="M35.47,69.93A12.16,12.16,0,1,1,23.31,57.76,12.13,12.13,0,0,1,35.47,69.93Z"/><circle class="cls-5" cx="23.31" cy="66.29" r="3.63"/><path class="cls-2" d="M14.4,76.19a4.88,4.88,0,0,1,.24-.54,5.84,5.84,0,0,1,.34-.58,6.79,6.79,0,0,1,.85-1A9.34,9.34,0,0,1,18,72.41a10.78,10.78,0,0,1,10.48,0A7.8,7.8,0,0,1,32,76.25l0,0a.57.57,0,0,1-.33.73.57.57,0,0,1-.54-.07,20.49,20.49,0,0,0-3.8-2.34,9.95,9.95,0,0,0-8.18.08,13,13,0,0,0-1.82,1.1l-1.88,1.36a.75.75,0,0,1-1.13-.87Z"/><line class="cls-6" x1="103.49" y1="69.71" x2="42.79" y2="69.99"/><path class="cls-7" d="M103.5,70.5c-5.06.42-10.11.52-15.17.52L73.15,71C68.09,71,63,70.92,58,70.88s-10.12-.14-15.18-.25a.64.64,0,0,1,0-1.29Q50.37,69.1,58,69c5.06-.08,10.12-.22,15.17-.25l15.18-.17c5.06,0,10.12,0,15.18.38a.8.8,0,0,1,0,1.59Z"/><line class="cls-6" x1="62.04" y1="79.05" x2="42.82" y2="79.14"/><path class="cls-7" d="M62,79.71a39.73,39.73,0,0,1-9.61.59c-3.2-.06-6.41-.22-9.61-.56a.6.6,0,0,1,0-1.19c3.2-.38,6.4-.57,9.61-.65a39.7,39.7,0,0,1,9.61.5.68.68,0,0,1,0,1.32Z"/><line class="cls-6" x1="74.7" y1="78.99" x2="66.61" y2="79.03"/><path class="cls-7" d="M74.7,79.74a9.08,9.08,0,0,1-4,.49,22.77,22.77,0,0,1-4-.45.77.77,0,0,1,0-1.5,22.76,22.76,0,0,1,4-.49,9.08,9.08,0,0,1,4,.45.82.82,0,0,1,0,1.5Z"/><line class="cls-6" x1="103.46" y1="60.22" x2="59.91" y2="60.42"/><path class="cls-7" d="M103.46,60.79Q98,61,92.58,61.17c-3.63.08-7.26.2-10.89.26L70.8,61.6a85,85,0,0,1-10.89-.33.85.85,0,0,1,0-1.69,84.91,84.91,0,0,1,10.89-.43l10.89.07c3.63,0,7.26.11,10.89.15s7.26.15,10.89.27a.58.58,0,0,1,0,1.15Z"/><line class="cls-6" x1="52.65" y1="60.45" x2="44.07" y2="60.49"/><path class="cls-7" d="M52.65,61a38.48,38.48,0,0,1-4.29.56c-.71.06-1.43.1-2.14.13a3.56,3.56,0,0,1-2.15-.38,1,1,0,0,1,0-1.69,3.56,3.56,0,0,1,2.14-.4c.72,0,1.43.06,2.15.11a38.54,38.54,0,0,1,4.29.52.59.59,0,0,1,0,1.15Z"/><path class="cls-1" d="M98.39,42.42h7.24A6.35,6.35,0,0,0,112,36.06V7.82a6.35,6.35,0,0,0-6.35-6.35H62.73"/><path class="cls-2" d="M98.39,41.17h6.15a7.91,7.91,0,0,0,2.66-.25,5.12,5.12,0,0,0,3.32-3.39,5.08,5.08,0,0,0,.2-1.21c0-.19,0-.44,0-.71V8c0-.26,0-.43,0-.64a5.27,5.27,0,0,0-.82-2.3,5.12,5.12,0,0,0-4.16-2.28H99.61l-12.29,0L75,2.76l-6.15,0-3.07,0a8.76,8.76,0,0,1-3.07-.36.93.93,0,0,1,0-1.74A8.77,8.77,0,0,1,65.8.24l3.07,0L75,.18,87.31.2l12.29,0h6.17a7.71,7.71,0,0,1,3.52.93A7.79,7.79,0,0,1,112,3.63a7.77,7.77,0,0,1,1.23,3.43c0,.29,0,.64,0,.89V35.61c0,.25,0,.5,0,.83a7.59,7.59,0,0,1-.31,1.81,7.56,7.56,0,0,1-6.76,5.39c-.66,0-1.09,0-1.62,0H98.39a1.25,1.25,0,0,1,0-2.5Z"/><path class="cls-1" d="M49.46,1.47H7.64A6.35,6.35,0,0,0,1.28,7.82V36.06a6.35,6.35,0,0,0,6.35,6.35H91.32"/><path class="cls-2" d="M49.46,2.72H8.75c-.43,0-1,0-1.31,0a4.54,4.54,0,0,0-1.08.16A5.09,5.09,0,0,0,2.55,7.64c0,.81,0,1.78,0,2.67V36.09a5.8,5.8,0,0,0,.12,1.08A5.17,5.17,0,0,0,5.2,40.55a5.09,5.09,0,0,0,2.08.6c.32,0,.83,0,1.27,0H26.18l21.71,0H69.61l10.86,0h5.43a27.26,27.26,0,0,1,5.43.36.89.89,0,0,1,0,1.74,27.26,27.26,0,0,1-5.43.36H80.47l-10.86,0H47.9l-21.71,0H8.54c-.46,0-.87,0-1.44,0a7.59,7.59,0,0,1-3.1-.9,7.67,7.67,0,0,1-3.78-5A8.27,8.27,0,0,1,0,36.09V10.31c0-.92,0-1.76,0-2.76A7.59,7.59,0,0,1,5.74.47,7,7,0,0,1,7.34.23c.55,0,.93,0,1.4,0H49.46a1.25,1.25,0,0,1,0,2.5Z"/><line class="cls-1" x1="54.4" y1="1.47" x2="53.86" y2="1.47"/><path class="cls-2" d="M54.4,2.72l-.54-.33A1.08,1.08,0,0,1,53.51.9a1.1,1.1,0,0,1,.35-.35L54.4.22a1.47,1.47,0,1,1,0,2.5Z"/><path class="cls-3" d="M34.24,21.89a10.85,10.85,0,0,1-2.29,6.69,10.9,10.9,0,0,0-17.21,0,10.9,10.9,0,1,1,19.51-6.69Z"/><path class="cls-4" d="M35.5,21.89A12.16,12.16,0,1,1,23.34,9.73,12.13,12.13,0,0,1,35.5,21.89Z"/><circle class="cls-5" cx="23.34" cy="18.26" r="3.63"/><path class="cls-2" d="M14.43,28.16a4.9,4.9,0,0,1,.24-.54A5.84,5.84,0,0,1,15,27a6.79,6.79,0,0,1,.85-1A9.34,9.34,0,0,1,18,24.38a10.79,10.79,0,0,1,10.48,0,7.8,7.8,0,0,1,3.53,3.85l0,0a.57.57,0,0,1-.33.73.57.57,0,0,1-.54-.07,20.46,20.46,0,0,0-3.8-2.34,9.94,9.94,0,0,0-8.18.08,13,13,0,0,0-1.82,1.1l-1.88,1.36a.75.75,0,0,1-1.13-.87Z"/><line class="cls-6" x1="103.52" y1="21.67" x2="42.82" y2="21.95"/><path class="cls-7" d="M103.53,22.46c-5.06.42-10.11.52-15.17.52L73.18,23c-5.06,0-10.12-.08-15.18-.11s-10.12-.14-15.18-.25a.64.64,0,0,1,0-1.29q7.59-.24,15.17-.39c5.06-.08,10.12-.22,15.17-.25l15.18-.17c5.06,0,10.12,0,15.18.38a.8.8,0,0,1,0,1.59Z"/><line class="cls-6" x1="62.07" y1="31.01" x2="42.85" y2="31.1"/><path class="cls-7" d="M62.07,31.67a39.71,39.71,0,0,1-9.61.59c-3.2-.06-6.41-.22-9.61-.56a.6.6,0,0,1,0-1.19c3.2-.38,6.4-.57,9.61-.65a39.7,39.7,0,0,1,9.61.5.68.68,0,0,1,0,1.32Z"/><line class="cls-6" x1="74.73" y1="30.95" x2="66.64" y2="30.99"/><path class="cls-7" d="M74.73,31.71a9.08,9.08,0,0,1-4,.49,22.78,22.78,0,0,1-4-.45.77.77,0,0,1,0-1.5,22.76,22.76,0,0,1,4-.49,9.08,9.08,0,0,1,4,.45.82.82,0,0,1,0,1.5Z"/><line class="cls-6" x1="103.49" y1="12.18" x2="59.94" y2="12.38"/><path class="cls-7" d="M103.5,12.76q-5.44.23-10.89.38c-3.63.08-7.26.2-10.89.26l-10.89.17a84.91,84.91,0,0,1-10.89-.33.85.85,0,0,1,0-1.69,85,85,0,0,1,10.89-.43l10.89.07c3.63,0,7.26.11,10.89.15s7.26.15,10.89.27a.58.58,0,0,1,0,1.15Z"/><line class="cls-6" x1="52.68" y1="12.42" x2="44.1" y2="12.46"/><path class="cls-7" d="M52.68,13a38.48,38.48,0,0,1-4.29.56c-.71.06-1.43.1-2.14.13a3.57,3.57,0,0,1-2.15-.38,1,1,0,0,1,0-1.69,3.56,3.56,0,0,1,2.14-.4c.72,0,1.43.06,2.15.11a38.54,38.54,0,0,1,4.29.52.59.59,0,0,1,0,1.15Z"/></g></g></svg>