<svg xmlns="http://www.w3.org/2000/svg" viewBox="0 0 107.6 76.94"><defs><style>.cls-1,.cls-3{fill:#fff;}.cls-1{stroke:#717791;stroke-linecap:round;stroke-linejoin:round;stroke-width:2.04px;}.cls-2{fill:#3f72ba;opacity:0.2;}.cls-4{fill:#b8d4ff;}.cls-5{fill:#717791;}.cls-6{fill:#fdd1be;}.cls-7{fill:#fd9a9a;}</style></defs><title>money-upfront</title><g id="Layer_2" data-name="Layer 2"><g id="Layer_1-2" data-name="Layer 1"><path class="cls-1" d="M106.57,37.89V60.53A15.38,15.38,0,0,1,91.19,75.92h-46V23.65h23l5.88-4.12H90.36c4.7,0,6.75,1.74,10.24,4.89A18.18,18.18,0,0,1,106.57,37.89Z"/><path class="cls-1" d="M62.86,63.38H28.39a6.28,6.28,0,0,1-6.28-6.28h0a6.28,6.28,0,0,1,6.28-6.28H62.86"/><path class="cls-1" d="M56.71,50.82H26.21a7,7,0,0,1-7-7h0a7,7,0,0,1,7-7h30.5"/><path class="cls-1" d="M52.13,36.92H24.61A6.64,6.64,0,0,1,18,30.29h0a6.64,6.64,0,0,1,6.64-6.64H52.13"/><path class="cls-1" d="M62.24,75.91H36.85a6.28,6.28,0,0,1-6.28-6.28h0a6.28,6.28,0,0,1,6.28-6.28h25.4"/><rect class="cls-2" x="7.73" y="5.71" width="60.71" height="40.68" rx="2.73" ry="2.73"/><path class="cls-3" d="M61,4.88V38.6a3.45,3.45,0,0,1-3.43,3.48h-53A3.46,3.46,0,0,1,1.15,38.6V4.88a3.53,3.53,0,0,1,.7-2.12A3.45,3.45,0,0,1,4.59,1.4h53A3.45,3.45,0,0,1,61,4.88Z"/><path class="cls-4" d="M61,8.71V40.28a3.51,3.51,0,0,1-2.78,1.38H4.5A3.49,3.49,0,0,1,1,38.17V6.59A3.52,3.52,0,0,1,3.8,5.23H57.54A3.48,3.48,0,0,1,61,8.71Z"/><path class="cls-5" d="M0,16V4.17a4.45,4.45,0,0,1,3.37-4A4.24,4.24,0,0,1,4.35,0c.31,0,.51,0,.76,0H58.28l.47,0a4.65,4.65,0,0,1,.91.2,4.47,4.47,0,0,1,3,4.28V38.25a4.46,4.46,0,0,1-3.18,4.19,5.56,5.56,0,0,1-1.73.19H5a5.84,5.84,0,0,1-1.72-.17A4.5,4.5,0,0,1,0,38.31l0-1.5A101.2,101.2,0,0,1,.48,25.09a.54.54,0,0,1,1.08,0A101.2,101.2,0,0,1,2,36.82v1.44a2.48,2.48,0,0,0,.24,1,2.45,2.45,0,0,0,1.56,1.32,4,4,0,0,0,1.19.1H57.79A3.63,3.63,0,0,0,59,40.58a2.52,2.52,0,0,0,1.79-2.36V4.51a2.5,2.5,0,0,0-.81-1.9,2.53,2.53,0,0,0-.9-.53A2.71,2.71,0,0,0,58.53,2l-.26,0H4.42A2.29,2.29,0,0,0,3.9,2,2.52,2.52,0,0,0,3,2.48,2.49,2.49,0,0,0,2,4.29V16A1,1,0,1,1,0,16Z"/><rect class="cls-5" x="1.02" y="10.6" width="60.71" height="6.51"/><path class="cls-5" d="M5.62,26.87a25.6,25.6,0,0,1,5-.46c1.68,0,3.36,0,5,0s3.36.09,5,.14,3.36.15,5,.27a1,1,0,0,1,0,1.94c-1.68.12-3.36.22-5,.27s-3.36.13-5,.14-3.36,0-5,0a25.6,25.6,0,0,1-5-.46,1,1,0,0,1,0-1.94Z"/><path class="cls-5" d="M5.37,33.22a12.45,12.45,0,0,1,3-.19,26.88,26.88,0,0,1,3,.19,1,1,0,0,1,0,1.94,26.85,26.85,0,0,1-3,.19,12.44,12.44,0,0,1-3-.19,1,1,0,0,1,0-1.94Z"/><path class="cls-5" d="M14.7,33.22A10.85,10.85,0,0,1,16.2,33c.5,0,1-.05,1.49-.05a16.42,16.42,0,0,1,3,.27,1,1,0,0,1,0,1.94,16.43,16.43,0,0,1-3,.27c-.5,0-1,0-1.49-.05a10.85,10.85,0,0,1-1.49-.21,1,1,0,0,1,0-1.94Z"/><path class="cls-5" d="M24,33.22A20.87,20.87,0,0,1,27,33a9.32,9.32,0,0,1,3,.25,1,1,0,0,1,0,1.94,9.32,9.32,0,0,1-3,.25,20.86,20.86,0,0,1-3-.25,1,1,0,0,1,0-1.94Z"/><path class="cls-5" d="M33.37,33.22a21.38,21.38,0,0,1,3-.25,9,9,0,0,1,3,.25A1,1,0,0,1,40,34.48a1,1,0,0,1-.68.68,9.05,9.05,0,0,1-3,.25,21.38,21.38,0,0,1-3-.25,1,1,0,0,1,0-1.94Z"/><circle class="cls-6" cx="53.42" cy="32.82" r="3.48"/><circle class="cls-7" cx="48.75" cy="32.82" r="3.48"/><path class="cls-1" d="M90.86,49.25A16.64,16.64,0,0,1,74.23,32.84v0H63.83a12,12,0,0,1-12-12V19.54H85.18"/></g></g></svg>