<svg xmlns="http://www.w3.org/2000/svg" viewBox="0 0 82.63 84.06"><defs><style>.cls-1,.cls-2{fill:#fff;}.cls-1,.cls-4,.cls-5,.cls-6{stroke:#717791;}.cls-1,.cls-4,.cls-5{stroke-linecap:round;stroke-linejoin:round;stroke-width:3px;}.cls-3,.cls-6{fill:#717791;}.cls-4{fill:#e5eefd;}.cls-5{fill:none;}.cls-6{stroke-miterlimit:10;stroke-width:0.5px;}</style></defs><title>money-free</title><g id="Layer_2" data-name="Layer 2"><g id="Layer_1-2" data-name="Layer 1"><polygon class="cls-1" points="71.33 32.13 8.88 32.13 15.01 1.61 65.2 1.61 71.33 32.13"/><path class="cls-2" d="M2,82a4.13,4.13,0,0,1-1-3.14L6.4,17.59a3.17,3.17,0,0,1,3.15-2.88H73.81a1.69,1.69,0,0,1,1.68,1.54L81,78.55a3.61,3.61,0,0,1-3.59,3.93H5.1"/><path class="cls-3" d="M1.4,82.52A4.88,4.88,0,0,1,.15,80.28,5,5,0,0,1,0,79l.05-1.12c.07-1.44.14-2.89.24-4.33.2-2.88.34-5.77.58-8.65.45-5.76.9-11.52,1.42-17.27l1.5-17.26.75-8.63.38-4.34a4.7,4.7,0,0,1,4.2-4.17l34.8-.11,17.33,0,8.66,0H74.1a3.44,3.44,0,0,1,.53.09,3.36,3.36,0,0,1,1.79,1.14,3.35,3.35,0,0,1,.69,1.45,4.54,4.54,0,0,1,.06.45l.2,2.16,3,34.53,1.5,17.26.38,4.32.19,2.16.09,1.08c0,.38.07.64.08,1.23a5.21,5.21,0,0,1-3.36,4.82,4.94,4.94,0,0,1-1.52.32c-.29,0-.47,0-.64,0H74.41L39.75,84C28.2,84,16.65,84,5.1,82.88a.4.4,0,0,1,0-.79C16.65,81,28.2,81,39.75,81l34.66-.06h3.15a1.79,1.79,0,0,0,.59-.13,2,2,0,0,0,1.3-1.87l-.76-8.48L77.13,53.15,74,18.64l-.19-2.25H69.9l-8.66,0-17.33,0L9.39,16.23A1.67,1.67,0,0,0,7.9,17.7L7.51,22l-.79,8.63L5.13,47.87c-.51,5.75-1.08,11.5-1.66,17.25-.27,2.88-.65,5.74-1,8.61C2.35,75.17,2.16,76.6,2,78l-.13,1a3.18,3.18,0,0,0,0,.85,3.41,3.41,0,0,0,.68,1.58h0a.77.77,0,0,1-1.15,1Z"/><polygon class="cls-4" points="8.87 14.71 19.89 8.63 14.92 1.5 65.25 1.5 61.58 7.76 74.16 14.7 8.87 14.71"/><path class="cls-5" d="M56.7,29.32v7c0,9-8.13,14.94-17.13,14.94h0c-9,0-15.47-5.94-15.47-14.94v-7"/><path class="cls-3" d="M29,32a4.09,4.09,0,0,1-2.53,2.51,5.29,5.29,0,0,1-3.75-.1,5.71,5.71,0,0,1-3.6-6.15A5.76,5.76,0,0,1,20.78,25a5.61,5.61,0,0,1,3.3-1.49,5.13,5.13,0,0,1,3.4.86,4.51,4.51,0,0,1,1.85,2.76.54.54,0,0,1-1,.43l0,0a4,4,0,0,0-4-1.67A3.07,3.07,0,0,0,22,28.65a3,3,0,0,0,1.83,3,3.71,3.71,0,0,0,1.85.18,6.35,6.35,0,0,0,2.08-.69l.1,0A.81.81,0,0,1,29,32Z"/><path class="cls-3" d="M60.36,32a4.09,4.09,0,0,1-2.53,2.51,5.29,5.29,0,0,1-3.75-.1,5.71,5.71,0,0,1-3.6-6.15A5.75,5.75,0,0,1,52.19,25a5.61,5.61,0,0,1,3.3-1.49,5.13,5.13,0,0,1,3.4.86,4.51,4.51,0,0,1,1.85,2.76.54.54,0,0,1-1,.43l0,0a4,4,0,0,0-4-1.67,3.07,3.07,0,0,0-2.44,2.78,3,3,0,0,0,1.83,3,3.71,3.71,0,0,0,1.85.18,6.35,6.35,0,0,0,2.08-.69l.1,0a.81.81,0,0,1,1.14,1Z"/><path class="cls-6" d="M24.28,62.5l6.42-.12,0,1.29-4.88.09.08,4,4.51-.09,0,1.27L25.94,69l.1,5.4-1.54,0Z"/><path class="cls-6" d="M32.9,62.49a16,16,0,0,1,2.95-.31,4.87,4.87,0,0,1,3.47.91,3,3,0,0,1,1,2.25,3.13,3.13,0,0,1-2.19,3.09v.05a3,3,0,0,1,1.8,2.37,19.08,19.08,0,0,0,1,3.26l-1.59,0a15.45,15.45,0,0,1-.85-2.83c-.39-1.64-1-2.24-2.43-2.27l-1.45,0,.1,5.17-1.54,0Zm1.65,5.4,1.57,0c1.65,0,2.67-1,2.65-2.32,0-1.54-1.16-2.19-2.78-2.18a6.34,6.34,0,0,0-1.52.17Z"/><path class="cls-6" d="M48.71,68.36l-4.63.09.08,4.3,5.17-.1,0,1.29-6.71.13-.23-11.93L48.86,62l0,1.29-4.9.1.07,3.77,4.63-.09Z"/><path class="cls-6" d="M57.42,68.19l-4.63.09.08,4.3,5.17-.1,0,1.29-6.71.13L51.12,62l6.44-.13,0,1.29-4.9.1L52.76,67l4.63-.09Z"/></g></g></svg>