<svg xmlns="http://www.w3.org/2000/svg" viewBox="0 0 97.53 92.44"><defs><style>.cls-1{fill:#3f72ba;opacity:0.2;}.cls-2,.cls-3{fill:#b8d4ff;}.cls-2,.cls-6{stroke:#717791;stroke-linecap:round;stroke-linejoin:round;}.cls-2{stroke-width:3px;}.cls-4{fill:#717791;}.cls-5{fill:#e5eefd;}.cls-6{fill:none;stroke-width:4px;}</style></defs><title>money-notsure</title><g id="Layer_2" data-name="Layer 2"><g id="Layer_1-2" data-name="Layer 1"><path class="cls-1" d="M69.13,61.52l-2.45,2.61-7.15-6.75-1,1.17A31.65,31.65,0,0,0,48.46,12l-.67-.06A31.57,31.57,0,0,0,23.57,9.74l-.69-.06A31.66,31.66,0,1,0,55.17,62.33l-.18.21,6.58,7-1.81,2,20.76,19a6.61,6.61,0,0,0,9.2-.25l4.95-5.06Zm-35.92.11A24.61,24.61,0,1,1,57.81,37,24.6,24.6,0,0,1,33.21,61.62Z"/><polygon class="cls-2" points="70.49 61 65.95 65.54 54.99 55.82 59.53 50.66 70.49 61"/><path class="cls-3" d="M78.66,83.7l-18.9-18.9,9.37-10L94,79a7.06,7.06,0,0,1,0,10h0a7.07,7.07,0,0,1-8.5,1.14"/><path class="cls-4" d="M78.32,84a21.9,21.9,0,0,1-5.42-4c-1.63-1.52-3.25-3-4.85-4.6s-3.19-3.11-4.75-4.7-3.1-3.2-4.61-4.84l0-.05a1.5,1.5,0,0,1,0-2l9.37-10a1.5,1.5,0,0,1,2.12-.07h0l0,0c3.34,3.14,6.63,6.33,9.93,9.51l9.84,9.61,4.88,4.84a8.63,8.63,0,0,1,2.6,7.54,8.54,8.54,0,0,1-4.74,6.41,7.86,7.86,0,0,1-4,.78,5.8,5.8,0,0,1-3.6-1.63.77.77,0,0,1,.67-1.3h.06a13.29,13.29,0,0,0,3,.22,6.71,6.71,0,0,0,2.66-.65,5.61,5.61,0,0,0,3-4.27,5.42,5.42,0,0,0-.3-2.66A5.69,5.69,0,0,0,93.56,81c-.14-.17-.26-.37-.41-.52s-.28-.31-.51-.53l-5-4.76-9.85-9.59c-3.26-3.22-6.53-6.43-9.75-9.68l2.14,0-9.37,10,0-2.09c1.65,1.5,3.25,3,4.84,4.61s3.15,3.15,4.7,4.75,3.08,3.22,4.6,4.85a21.9,21.9,0,0,1,4,5.42.5.5,0,0,1-.67.67Z"/><path class="cls-5" d="M33.11,1.55A31.51,31.51,0,1,0,64.62,33.07,31.52,31.52,0,0,0,33.11,1.55Zm0,56.33A24.81,24.81,0,1,1,57.93,33.07,24.81,24.81,0,0,1,33.11,57.88Z"/><path class="cls-4" d="M41.64,1.88a13.48,13.48,0,0,1,5.78,1.2A23.44,23.44,0,0,1,50,4.41c.86.47,1.68,1,2.49,1.57A28.85,28.85,0,0,1,57,9.8a31.34,31.34,0,0,1,3.71,4.59A33.83,33.83,0,0,1,66,36.87,33.13,33.13,0,1,1,12.21,7.32,25.36,25.36,0,0,1,22.6,2.14a.87.87,0,0,1,.57,1.64h0A45.22,45.22,0,0,0,14,9.49a30.19,30.19,0,1,0,49,27,29.54,29.54,0,0,0-5-20.34A33,33,0,0,0,50.69,8.5a44.72,44.72,0,0,0-4.54-2.89C44.61,4.7,43.06,3.91,41.38,3a.6.6,0,0,1-.24-.81A.6.6,0,0,1,41.64,1.88Z"/><path class="cls-4" d="M34.67.27,36.58,0a1.55,1.55,0,1,1-.31,3l-.06,0-1.69-.6-.08,0A1.08,1.08,0,0,1,34.67.27Z"/><path class="cls-4" d="M42.94,9.61a16,16,0,0,1,4.84,2,22.09,22.09,0,0,1,4.1,3.31c.65.6,1.19,1.3,1.78,2s1.07,1.41,1.52,2.17a24.09,24.09,0,0,1,2.36,4.75,27.21,27.21,0,0,1,1.33,5.13,26.56,26.56,0,0,1,.24,5.29,26,26,0,0,1-2.58,10.23,26.42,26.42,0,0,1-6.42,8.41,25.45,25.45,0,0,1-19.84,6.09,24.68,24.68,0,0,1-5.19-1.17,10.13,10.13,0,0,1-4.39-3,.56.56,0,0,1,.5-.91h0A36.18,36.18,0,0,1,26,54.95a23.6,23.6,0,0,0,13.89,0,23.41,23.41,0,0,0,14-11.79,22.88,22.88,0,0,0,1-18.31,24.61,24.61,0,0,0-4.95-8,44.68,44.68,0,0,0-7.44-6l0,0a.65.65,0,0,1,.52-1.16Z"/><path class="cls-4" d="M8.63,39.08A14.23,14.23,0,0,1,7.1,33.79a23.37,23.37,0,0,1,.26-5.55A24.77,24.77,0,0,1,11.56,18a27.17,27.17,0,0,1,3.69-4.18,26.37,26.37,0,0,1,4.52-3.23A19.37,19.37,0,0,1,30.29,7.75a.68.68,0,0,1,.16,1.34h0A38.19,38.19,0,0,0,21.21,13a23.2,23.2,0,0,0-7,6.82,24.25,24.25,0,0,0-3.8,9,39.9,39.9,0,0,0-.52,4.91C9.8,35.35,9.82,37,9.8,38.79h0a.62.62,0,0,1-1.17.29Z"/><path class="cls-6" d="M30.92,37.23l.42-3.68s6.93,1.12,6.93-4.32-7.35-5.33-7.35-5.33"/><line class="cls-6" x1="30.92" y1="42.23" x2="30.92" y2="42.06"/></g></g></svg>