<svg xmlns="http://www.w3.org/2000/svg" viewBox="0 0 105.57 83.51"><defs><style>.cls-1{fill:#e5eefd;}.cls-1,.cls-4{stroke:#717791;stroke-linecap:round;stroke-linejoin:round;stroke-width:2.2px;}.cls-2,.cls-4{fill:#fff;}.cls-3{fill:#717791;}</style></defs><title>money-inapp</title><g id="Layer_2" data-name="Layer 2"><g id="Layer_1-2" data-name="Layer 1"><path class="cls-1" d="M94.59,9.81,71.44,33.15a1.76,1.76,0,0,1-2.48,0l-2.34-2.34a1.76,1.76,0,0,1,0-2.48l22-22"/><path class="cls-1" d="M21.19,37.78l6,40.6a4.71,4.71,0,0,0,4.65,4h60a4.71,4.71,0,0,0,4.65-4l6-40.86H57.38"/><rect class="cls-1" x="71.47" y="29.51" width="33" height="8.28" rx="1.34" ry="1.34"/><path class="cls-2" d="M26.25,37.53H3.56l6,40.86a4.71,4.71,0,0,0,4.65,4h60a4.71,4.71,0,0,0,4.65-4l6.37-43.13"/><path class="cls-3" d="M26.25,38.55H3.56l1-1.17,5.5,37.26L10.41,77l.17,1.16a3.87,3.87,0,0,0,.23.91,3.69,3.69,0,0,0,2.71,2.27,4.68,4.68,0,0,0,1,.07h60a3.66,3.66,0,0,0,3.36-2.7c0-.15.06-.3.1-.46l.09-.58.34-2.33.69-4.66,1.33-9.32L81.7,52l.7-4.66a23.64,23.64,0,0,1,1-4.61A.8.8,0,0,1,85,43a23.64,23.64,0,0,1-.37,4.7l-.67,4.66-1.43,9.31-1.42,9.31-.69,4.66L80,77.93l-.09.58a6.71,6.71,0,0,1-.15.69,5.7,5.7,0,0,1-5.22,4.2H14.5a6.83,6.83,0,0,1-1.37-.11,5.73,5.73,0,0,1-4.21-3.52,6,6,0,0,1-.35-1.36L8.4,77.27l-.34-2.33L2.55,37.67a1,1,0,0,1,.86-1.16H26.25a1,1,0,0,1,0,2Z"/><rect class="cls-2" x="1" y="29.51" width="85.88" height="8.28" rx="2.17" ry="2.17"/><path class="cls-3" d="M13.46,30.31a13.86,13.86,0,0,1-2.33.27,6.13,6.13,0,0,1-2.33-.19.92.92,0,0,1,0-1.75,6.13,6.13,0,0,1,2.33-.19,13.86,13.86,0,0,1,2.33.27.82.82,0,0,1,0,1.6Z"/><path class="cls-3" d="M35.59,30.12a13.13,13.13,0,0,1-3.13.46c-1,.06-2.08.06-3.13,0H26.21a23.33,23.33,0,0,1-3.13-.42.69.69,0,0,1,0-1.36,23.33,23.33,0,0,1,3.13-.42h3.13c1,0,2.08,0,3.13,0a13.13,13.13,0,0,1,3.13.46.64.64,0,0,1,.43.8A.65.65,0,0,1,35.59,30.12Z"/><path class="cls-3" d="M45.53,37.24a4.75,4.75,0,0,1,2.52-.4h2.52l5,0,10.08,0H85.18a.76.76,0,0,0,.72-.7s0-.14,0-.24V31.44c0-.11,0-.22,0-.24a.78.78,0,0,0-.07-.27.76.76,0,0,0-.66-.45H84.6l-10.08.08-10.08.09-5,0a16.72,16.72,0,0,1-5-.51.63.63,0,0,1-.41-.78.63.63,0,0,1,.41-.41,16.72,16.72,0,0,1,5-.51l5,0,10.08.09,10.08.08h.68a2.72,2.72,0,0,1,2.57,2.51c0,.19,0,.29,0,.39v4.41c0,.1,0,.2,0,.39a2.72,2.72,0,0,1-2.57,2.53H65.7l-10.08,0-5,0H48.05a4.75,4.75,0,0,1-2.52-.4.63.63,0,0,1-.22-.86A.64.64,0,0,1,45.53,37.24Z"/><path class="cls-3" d="M6,30c-.5.49-1,.37-1.5.4H3a1.4,1.4,0,0,0-.47,0,.74.74,0,0,0-.29.17.78.78,0,0,0-.26.59l0,3v1.5c0,.1,0,.3,0,.32a.59.59,0,0,0,0,.16.74.74,0,0,0,.14.28.75.75,0,0,0,.56.27H13.2c4,0,8,0,12-.07l6-.09,3,0a6.13,6.13,0,0,1,3,.51.67.67,0,0,1,0,1.2,6.13,6.13,0,0,1-3,.51l-3,0-6-.09c-4-.09-8-.08-12-.07H2.7a2.74,2.74,0,0,1-2.6-2A2.56,2.56,0,0,1,0,36.18c0-.22,0-.28,0-.42v-1.5l0-3a2.73,2.73,0,0,1,.95-2,2.67,2.67,0,0,1,1-.55,3.31,3.31,0,0,1,1-.1h1.5c.5,0,1-.1,1.5.4A.76.76,0,0,1,6,30Z"/><path class="cls-2" d="M73.4,7.37,43.93,36.83a2.26,2.26,0,0,1-3.2,0l-3-3a2.26,2.26,0,0,1,0-3.2l30-30"/><path class="cls-2" d="M63.51,4.81l3.33-3.33A1.16,1.16,0,0,1,68,1.2"/><path class="cls-3" d="M63.09,4.39A3.87,3.87,0,0,1,63.85,3q.48-.58,1-1.11L65.91.86,66,.73a2.58,2.58,0,0,1,.25-.22,2.25,2.25,0,0,1,.64-.34,2.21,2.21,0,0,1,1.43,0,1.05,1.05,0,0,1-.21,2l-.46.05h-.06l0,0-.13.13L66.41,3.48q-.53.53-1.11,1a3.87,3.87,0,0,1-1.36.76.68.68,0,0,1-.85-.85Z"/><line class="cls-2" x1="57.83" y1="10.5" x2="60.51" y2="7.82"/><path class="cls-3" d="M57.11,9.77c.11-.34.43-.46.66-.68l.74-.6c.49-.41,1-.8,1.5-1.18a.72.72,0,0,1,1,1c-.38.52-.77,1-1.18,1.5l-.6.74c-.22.22-.34.55-.68.66a1.15,1.15,0,0,1-1.45-1.45Z"/><path class="cls-3" d="M74.12,8.09,46.58,35.64l-1.72,1.72-.22.22a3.36,3.36,0,0,1-.34.29,3.25,3.25,0,0,1-.77.43,3.29,3.29,0,0,1-3.32-.56c-.25-.22-.34-.33-.5-.48l-.43-.43L37.56,35.1a8.94,8.94,0,0,1-1-1A3.27,3.27,0,0,1,36.9,30l.45-.47,3.41-3.47,6.84-6.94c1.13-1.16,2.3-2.3,3.45-3.43L52.79,14a4.11,4.11,0,0,1,2.05-1.39.76.76,0,0,1,.9.59.77.77,0,0,1,0,.31,4.11,4.11,0,0,1-1.39,2.05l-1.71,1.74c-1.14,1.16-2.27,2.32-3.43,3.45l-6.94,6.84L38.81,31c-.13.13-.32.31-.4.4a1.21,1.21,0,0,0-.32.92,1.22,1.22,0,0,0,.21.62,9.37,9.37,0,0,0,.71.74l1.72,1.72.43.43c.13.13.32.32.38.37a1.22,1.22,0,0,0,.6.28,1.25,1.25,0,0,0,.66-.07,1.2,1.2,0,0,0,.29-.16,1.31,1.31,0,0,0,.13-.11l.21-.21,1.72-1.72L72.68,6.64a1,1,0,0,1,1.45,1.45Z"/><circle class="cls-4" cx="42.33" cy="32.16" r="1.88"/><polyline class="cls-4" points="67.69 1.1 88.33 4.35 94.59 9.81 73.24 7.59"/><line class="cls-2" x1="22.73" y1="45.82" x2="25.68" y2="73.72"/><path class="cls-3" d="M23.19,45.77c.37,2.31.72,4.63,1,6.94s.65,4.63.94,7,.62,4.64.87,7,.48,4.65.55,7a.92.92,0,0,1-1.83.19c-.41-2.31-.69-4.63-.92-7s-.4-4.66-.61-7-.37-4.66-.53-7-.31-4.67-.43-7a.46.46,0,0,1,.92-.1Z"/><line class="cls-2" x1="13.49" y1="45.82" x2="16.44" y2="73.72"/><path class="cls-3" d="M14.3,45.73q.62,3.46,1,6.95c.28,2.32.49,4.65.7,7q.68,7,1.09,14a.66.66,0,0,1-1.32.14q-1.05-6.94-1.86-13.91c-.28-2.32-.56-4.64-.77-7s-.4-4.66-.48-7a.82.82,0,0,1,1.63-.17Z"/><line class="cls-2" x1="33.76" y1="56.9" x2="35.05" y2="73.72"/><path class="cls-3" d="M34.31,56.85A14.82,14.82,0,0,1,35.13,61q.25,2.1.43,4.2c.12,1.4.21,2.81.28,4.21a14.05,14.05,0,0,1-.24,4.25.57.57,0,0,1-1.09.08,14.05,14.05,0,0,1-.89-4.16c-.15-1.4-.27-2.8-.37-4.2s-.16-2.81-.21-4.22a14.82,14.82,0,0,1,.17-4.25.59.59,0,0,1,1.1-.09Z"/><line class="cls-2" x1="32.91" y1="45.94" x2="33.27" y2="50.55"/><path class="cls-3" d="M33.46,45.9c.51.35.48.74.58,1.11a11,11,0,0,1,.2,1.14,8.35,8.35,0,0,1,0,1.16,1.46,1.46,0,0,1-.48,1.2.84.84,0,0,1-1.09.08,1.46,1.46,0,0,1-.66-1.11,8.35,8.35,0,0,1-.13-1.15,11,11,0,0,1,0-1.16A1.46,1.46,0,0,1,32.36,46,.89.89,0,0,1,33.46,45.9Z"/><line class="cls-2" x1="62.63" y1="66.44" x2="61.87" y2="73.72"/><path class="cls-3" d="M63.46,66.53a14.4,14.4,0,0,1-.13,3.67,18.27,18.27,0,0,1-.84,3.59.65.65,0,0,1-1.25-.13A18.27,18.27,0,0,1,61.17,70a14.41,14.41,0,0,1,.64-3.61.85.85,0,0,1,1.65.17Z"/><line class="cls-2" x1="64.81" y1="45.82" x2="63.22" y2="60.86"/><path class="cls-3" d="M65.44,45.89c0,1.27,0,2.53-.1,3.79s-.14,2.52-.25,3.77a29.35,29.35,0,0,1-1.27,7.47.62.62,0,0,1-1.19-.13A29.35,29.35,0,0,1,63,53.23c.15-1.25.35-2.5.54-3.74s.43-2.49.69-3.73a.63.63,0,0,1,1.25.13Z"/><line class="cls-2" x1="74.72" y1="45.69" x2="71.78" y2="73.59"/><path class="cls-3" d="M75.16,45.73a45.56,45.56,0,0,1-.1,7q-.31,3.49-.7,7c-.24,2.33-.55,4.64-.84,7s-.63,4.64-1,6.95A.75.75,0,0,1,71,73.51c.12-2.34.26-4.68.47-7s.39-4.66.63-7,.49-4.65.78-7a45.55,45.55,0,0,1,1.37-6.91.45.45,0,0,1,.88.09Z"/><line class="cls-2" x1="54.63" y1="45.94" x2="52.49" y2="73.72"/><path class="cls-3" d="M55.13,46c.06,2.33,0,4.66-.08,7s-.21,4.64-.38,7-.34,4.63-.58,6.94-.47,4.62-.79,6.93a.8.8,0,0,1-1.6-.12c0-2.33.14-4.65.28-7s.3-4.63.49-6.95.42-4.63.69-6.93.58-4.61,1-6.91a.5.5,0,0,1,1,.08Z"/><line class="cls-2" x1="43.23" y1="46.06" x2="44.16" y2="73.72"/><path class="cls-3" d="M43.76,46a54.2,54.2,0,0,1,.74,6.9l.35,6.91c.13,2.3.18,4.61.24,6.91l.07,3.46a11.34,11.34,0,0,1-.35,3.47.68.68,0,0,1-1.28,0,11.34,11.34,0,0,1-.58-3.44l-.17-3.46c-.09-2.3-.2-4.61-.23-6.92L42.42,53a54.18,54.18,0,0,1,.27-6.93.54.54,0,0,1,1.07,0Z"/></g></g></svg>