<svg xmlns="http://www.w3.org/2000/svg" viewBox="0 0 83.43 133.87"><defs><style>.cls-1,.cls-5{fill:#fff;}.cls-2{fill:#717791;}.cls-3{fill:#9fc3fd;}.cls-4,.cls-8{fill:none;}.cls-4,.cls-5,.cls-8{stroke:#717791;stroke-linecap:round;stroke-linejoin:round;}.cls-4,.cls-5{stroke-width:2.5px;}.cls-6{fill:#e5eefd;}.cls-7{fill:#a3acd6;}.cls-8{stroke-width:4px;}</style></defs><title>profiles-notsure</title><g id="Layer_2" data-name="Layer 2"><g id="Layer_1-2" data-name="Layer 1"><path class="cls-1" d="M71.09,31.26h7.12a3.86,3.86,0,0,1,3.87,3.85l.16,93.54a3.86,3.86,0,0,1-3.85,3.87l-73.08.13a3.86,3.86,0,0,1-3.87-3.85L1.28,35.25a3.86,3.86,0,0,1,3.85-3.87l47.42-.08"/><path class="cls-1" d="M79.91,132.2a3.85,3.85,0,0,1-1.53.32l-73.08.13a3.86,3.86,0,0,1-3.87-3.85L1.28,35.25a3.86,3.86,0,0,1,3.85-3.87l47.42-.08"/><path class="cls-2" d="M80.14,132.72a3.9,3.9,0,0,1-2,.69c-.59.07-1.19.12-1.78.15-1.19.05-2.37,0-3.56,0l-7.12,0-14.23.06L23,133.81l-14.23.06H5.2a5.1,5.1,0,0,1-4-2.08,5,5,0,0,1-.91-2.15,6.14,6.14,0,0,1-.08-1.09V124.1L.06,95.63,0,38.7V35.11a5.14,5.14,0,0,1,2.14-4,5,5,0,0,1,2.17-.9,14.33,14.33,0,0,1,2-.07H9.85l14.23,0,14.23,0c4.74.07,9.49-.28,14.23.54a.7.7,0,0,1,0,1.38c-4.74.83-9.49.5-14.23.59l-14.23,0-14.23,0H6.3a14,14,0,0,0-1.57,0,2.48,2.48,0,0,0-1.09.45,2.57,2.57,0,0,0-1.07,2v3.52L2.7,95.63v32a13,13,0,0,0,0,1.57,2.49,2.49,0,0,0,.46,1.1,2.61,2.61,0,0,0,2.06,1.08H72.83c1.19,0,2.37,0,3.56,0,.59,0,1.19.07,1.78.15a5.11,5.11,0,0,0,1.51.05h0a.59.59,0,0,1,.42,1.05Z"/><path class="cls-1" d="M71.09,31.26h7.12a3.86,3.86,0,0,1,3.87,3.85l.15,88.64"/><path class="cls-2" d="M71.09,30.76a7.75,7.75,0,0,1,3.18-.47l3.18-.07h.81a5.28,5.28,0,0,1,1,.11,4.88,4.88,0,0,1,3.81,4.19l.1,12.85.2,25.46.05,12.73c0,4.24,0,8.49,0,12.73s-.12,8.49-.21,12.73l-.14,6.36c-.06,2.12-.06,4.24-.21,6.36a.61.61,0,0,1-1.21,0c-.16-2.12-.17-4.24-.23-6.36L81.23,111c-.11-4.24-.21-8.49-.25-12.73s-.06-8.49-.07-12.73V72.83L81,47.38l0-6.36V36.24c0-.5,0-1.15,0-1.47a2.85,2.85,0,0,0-1.16-1.95,2.81,2.81,0,0,0-1.05-.48,3.23,3.23,0,0,0-.58-.07h-.79l-3.18-.06a7.75,7.75,0,0,1-3.18-.46.55.55,0,0,1,0-1Z"/><line class="cls-1" x1="57.91" y1="31.29" x2="58.32" y2="31.29"/><path class="cls-2" d="M57.91,30.15l.41-.11a1.3,1.3,0,1,1,.68,2.5,1.31,1.31,0,0,1-.68,0l-.41-.11a1.18,1.18,0,0,1,0-2.28Z"/><path class="cls-3" d="M59.34,68.8a16.68,16.68,0,0,1-3.51,10.29,16.76,16.76,0,0,0-26.46,0,16.76,16.76,0,1,1,30-10.33Z"/><path class="cls-4" d="M62.06,68.79A19.48,19.48,0,1,1,42.54,49.35,19.42,19.42,0,0,1,62.06,68.79Z"/><circle class="cls-5" cx="42.57" cy="63.24" r="5.59" transform="translate(-0.11 0.07) rotate(-0.1)"/><path class="cls-2" d="M29.39,78.88c.14-.28.28-.51.45-.79a8.91,8.91,0,0,1,.55-.83,11.54,11.54,0,0,1,1.31-1.5A14.75,14.75,0,0,1,35,73.41a16.29,16.29,0,0,1,15.5-.07A13,13,0,0,1,56,78.85l0,0a.56.56,0,0,1-.87.67,32,32,0,0,0-2.8-2.26,20,20,0,0,0-3-1.73,15.43,15.43,0,0,0-13.19.13,18,18,0,0,0-2.89,1.83c-.46.35-.91.71-1.35,1.09l-.67.58c-.23.2-.49.44-.74.64a.74.74,0,0,1-1.12-.93Z"/><line class="cls-6" x1="17.42" y1="108.55" x2="67.78" y2="108.46"/><path class="cls-7" d="M17.42,107.76c4.2-.36,8.39-.46,12.59-.48s8.39,0,12.59,0l12.59.14c4.2.05,8.39.09,12.59.41a.65.65,0,0,1,0,1.29c-4.2.34-8.39.39-12.59.45l-12.59.19c-4.2,0-8.39,0-12.59,0s-8.39-.09-12.59-.44a.8.8,0,0,1,0-1.59Z"/><line class="cls-6" x1="17.43" y1="115.24" x2="54.25" y2="115.18"/><path class="cls-7" d="M17.43,114.45a83.74,83.74,0,0,1,9.21-.47c3.07,0,6.14,0,9.21,0l9.21.15c3.07.05,6.14.09,9.21.41a.65.65,0,0,1,0,1.29c-3.07.33-6.14.38-9.21.45l-9.21.18c-3.07,0-6.14,0-9.21,0a83.8,83.8,0,0,1-9.21-.44.8.8,0,0,1,0-1.59Z"/><line class="cls-6" x1="17.4" y1="95.39" x2="25.59" y2="95.38"/><path class="cls-7" d="M17.39,94.81a14,14,0,0,1,2-.44c.68-.1,1.37-.17,2-.2a15.42,15.42,0,0,1,2,0,8.63,8.63,0,0,1,2,.37.89.89,0,0,1,0,1.69,8.63,8.63,0,0,1-2,.38,15.38,15.38,0,0,1-2,0c-.68,0-1.37-.1-2-.2a14,14,0,0,1-2-.44.6.6,0,0,1-.4-.76A.61.61,0,0,1,17.39,94.81Z"/><line class="cls-6" x1="28.41" y1="95.37" x2="33.67" y2="95.36"/><path class="cls-7" d="M28.41,94.78a4.55,4.55,0,0,1,1.31-.5A6.92,6.92,0,0,1,31,94.11a6.56,6.56,0,0,1,2.63.38.93.93,0,0,1,0,1.74,6.56,6.56,0,0,1-2.63.39,6.92,6.92,0,0,1-1.32-.16A4.55,4.55,0,0,1,28.41,96a.69.69,0,0,1-.25-.94A.69.69,0,0,1,28.41,94.78Z"/><path class="cls-8" d="M40.24,15.33l.42-3.68s6.93,1.12,6.93-4.32S40.24,2,40.24,2"/><line class="cls-8" x1="40.24" y1="20.33" x2="40.24" y2="20.17"/></g></g></svg>