<svg xmlns="http://www.w3.org/2000/svg" viewBox="0 0 83.43 129.93"><defs><style>.cls-1,.cls-5{fill:#fff;}.cls-2{fill:#717791;}.cls-3{fill:#9fc3fd;}.cls-4,.cls-8{fill:none;}.cls-4,.cls-5,.cls-8{stroke:#717791;stroke-linecap:round;stroke-linejoin:round;}.cls-4,.cls-5{stroke-width:2.5px;}.cls-6{fill:#e5eefd;}.cls-7{fill:#a3acd6;}.cls-8{stroke-width:4px;}</style></defs><title>profiles-none</title><g id="Layer_2" data-name="Layer 2"><g id="Layer_1-2" data-name="Layer 1"><path class="cls-1" d="M71.09,27.32h7.12a3.86,3.86,0,0,1,3.87,3.85l.16,93.54a3.86,3.86,0,0,1-3.85,3.87l-73.08.13a3.86,3.86,0,0,1-3.87-3.85L1.28,31.3a3.86,3.86,0,0,1,3.85-3.87l47.42-.08"/><path class="cls-1" d="M79.91,128.25a3.85,3.85,0,0,1-1.53.32l-73.08.13a3.86,3.86,0,0,1-3.87-3.85L1.28,31.3a3.86,3.86,0,0,1,3.85-3.87l47.42-.08"/><path class="cls-2" d="M80.14,128.77a3.9,3.9,0,0,1-2,.69c-.59.07-1.19.12-1.78.15-1.19.05-2.37,0-3.56,0l-7.12,0-14.23.06L23,129.86l-14.23.06H5.2a5.1,5.1,0,0,1-4-2.08,5,5,0,0,1-.91-2.15,6.14,6.14,0,0,1-.08-1.09v-4.45L.06,91.69,0,34.75V31.16a5.14,5.14,0,0,1,2.14-4,5,5,0,0,1,2.17-.9,14.36,14.36,0,0,1,2-.07H9.85l14.23,0,14.23,0c4.74.07,9.49-.28,14.23.54a.7.7,0,0,1,0,1.38c-4.74.83-9.49.5-14.23.59l-14.23,0-14.23,0H6.3a14,14,0,0,0-1.57,0,2.48,2.48,0,0,0-1.09.45,2.57,2.57,0,0,0-1.07,2v3.52L2.7,91.68v32a13,13,0,0,0,0,1.57,2.49,2.49,0,0,0,.46,1.1,2.61,2.61,0,0,0,2.06,1.08H72.83c1.19,0,2.37,0,3.56,0,.59,0,1.19.07,1.78.15a5.11,5.11,0,0,0,1.51.05h0a.59.59,0,0,1,.42,1.05Z"/><path class="cls-1" d="M71.09,27.32h7.12a3.86,3.86,0,0,1,3.87,3.85l.15,88.64"/><path class="cls-2" d="M71.09,26.82a7.75,7.75,0,0,1,3.18-.47l3.18-.07h.81a5.26,5.26,0,0,1,1,.11,4.87,4.87,0,0,1,3.81,4.19l.1,12.85.2,25.46.05,12.73c0,4.24,0,8.49,0,12.73s-.12,8.49-.21,12.73l-.14,6.36c-.06,2.12-.06,4.24-.21,6.36a.61.61,0,0,1-1.21,0c-.16-2.12-.17-4.24-.23-6.36l-.16-6.36c-.11-4.24-.21-8.49-.25-12.73s-.06-8.49-.07-12.73V68.89L81,43.43l0-6.36V32.29c0-.5,0-1.15,0-1.47a2.85,2.85,0,0,0-1.16-1.95,2.81,2.81,0,0,0-1.05-.48,3.23,3.23,0,0,0-.58-.07h-.79l-3.18-.06a7.75,7.75,0,0,1-3.18-.46.55.55,0,0,1,0-1Z"/><line class="cls-1" x1="57.91" y1="27.34" x2="58.32" y2="27.34"/><path class="cls-2" d="M57.91,26.2l.41-.11a1.3,1.3,0,1,1,.68,2.5,1.31,1.31,0,0,1-.68,0l-.41-.11a1.18,1.18,0,0,1,0-2.28Z"/><path class="cls-3" d="M59.34,64.85a16.68,16.68,0,0,1-3.51,10.29,16.76,16.76,0,0,0-26.46,0,16.76,16.76,0,1,1,30-10.33Z"/><path class="cls-4" d="M62.06,64.85A19.48,19.48,0,1,1,42.54,45.4,19.42,19.42,0,0,1,62.06,64.85Z"/><circle class="cls-5" cx="42.57" cy="59.29" r="5.59" transform="translate(-0.1 0.07) rotate(-0.1)"/><path class="cls-2" d="M29.39,74.93c.14-.28.28-.51.45-.79a8.93,8.93,0,0,1,.55-.83,11.56,11.56,0,0,1,1.31-1.5A14.75,14.75,0,0,1,35,69.47a16.29,16.29,0,0,1,15.5-.07A13,13,0,0,1,56,74.91l0,0a.56.56,0,0,1-.87.67,32,32,0,0,0-2.8-2.26,20,20,0,0,0-3-1.73,15.43,15.43,0,0,0-13.19.13,18,18,0,0,0-2.89,1.83c-.46.35-.91.71-1.35,1.09l-.67.58c-.23.2-.49.44-.74.64A.74.74,0,0,1,29.37,75Z"/><line class="cls-6" x1="17.42" y1="104.61" x2="67.78" y2="104.52"/><path class="cls-7" d="M17.42,103.81c4.2-.36,8.39-.46,12.59-.48s8.39,0,12.59,0l12.59.14c4.2.05,8.39.09,12.59.41a.65.65,0,0,1,0,1.29c-4.2.34-8.39.39-12.59.45l-12.59.19c-4.2,0-8.39,0-12.59,0s-8.39-.09-12.59-.44a.8.8,0,0,1,0-1.59Z"/><line class="cls-6" x1="17.43" y1="111.3" x2="54.25" y2="111.23"/><path class="cls-7" d="M17.43,110.5a83.8,83.8,0,0,1,9.21-.47c3.07,0,6.14,0,9.21,0l9.21.15c3.07.05,6.14.09,9.21.41a.65.65,0,0,1,0,1.29c-3.07.33-6.14.38-9.21.45l-9.21.18c-3.07,0-6.14,0-9.21,0a83.74,83.74,0,0,1-9.21-.44.8.8,0,0,1,0-1.59Z"/><line class="cls-6" x1="17.4" y1="91.44" x2="25.59" y2="91.43"/><path class="cls-7" d="M17.39,90.87a14,14,0,0,1,2-.44c.68-.1,1.37-.17,2-.2a15.42,15.42,0,0,1,2,0,8.63,8.63,0,0,1,2,.37.89.89,0,0,1,0,1.69,8.64,8.64,0,0,1-2,.38,15.42,15.42,0,0,1-2,0c-.68,0-1.37-.1-2-.2a14,14,0,0,1-2-.44.6.6,0,0,1,0-1.15Z"/><line class="cls-6" x1="28.41" y1="91.42" x2="33.67" y2="91.41"/><path class="cls-7" d="M28.41,90.83a4.55,4.55,0,0,1,1.31-.5A6.92,6.92,0,0,1,31,90.17a6.56,6.56,0,0,1,2.63.38.93.93,0,0,1,0,1.74,6.56,6.56,0,0,1-2.63.39,6.92,6.92,0,0,1-1.32-.16A4.55,4.55,0,0,1,28.41,92a.69.69,0,0,1-.25-.94A.69.69,0,0,1,28.41,90.83Z"/><line class="cls-8" x1="39.61" y1="3.17" x2="50.74" y2="14.9"/><line class="cls-8" x1="37.26" y1="14.9" x2="51.33" y2="2"/></g></g></svg>