<svg xmlns="http://www.w3.org/2000/svg" viewBox="0 0 153.07 38.58"><defs><style>.cls-1{fill:#fff;}.cls-2{fill:#717791;}.cls-3{fill:#fdd1be;}.cls-4{fill:none;stroke:#717791;stroke-linecap:round;stroke-linejoin:round;}</style></defs><title>reviews</title><g id="Layer_2" data-name="Layer 2"><g id="Layer_1-2" data-name="Layer 1"><rect class="cls-1" x="0.89" y="1.05" width="151.18" height="36.55" rx="2.62" ry="2.62"/><path class="cls-2" d="M44.53.32C51.7,0,58.88,0,66.05,0H87.57l43,0h16.14a7.89,7.89,0,0,1,1.53.11,5.91,5.91,0,0,1,4.79,5.75V32.83A5.87,5.87,0,0,1,149.73,38a5.65,5.65,0,0,1-1.53.5,8,8,0,0,1-1.51.09h-26.9L33.7,38.51H5.79l-.4,0a5.48,5.48,0,0,1-1.55-.32A5.77,5.77,0,0,1,.05,33.45,7.22,7.22,0,0,1,0,32.67V6.44A7.91,7.91,0,0,1,.11,4.94,5.54,5.54,0,0,1,.6,3.44,5.76,5.76,0,0,1,5.66.19l5.4,0c3.59,0,7.17.11,10.76.26a.57.57,0,0,1,0,1.13c-3.59.15-7.17.22-10.76.26l-5.36,0A4,4,0,0,0,2.17,4.2a3.79,3.79,0,0,0-.34,1,6.2,6.2,0,0,0-.07,1.19V32.67a5.45,5.45,0,0,0,0,.56,4,4,0,0,0,2.63,3.25,6.25,6.25,0,0,0,2.36.24H33.7l86.08-.05h26.9a6.07,6.07,0,0,0,1.17-.07,3.69,3.69,0,0,0,1-.33,3.91,3.91,0,0,0,2.21-3.44V5.92a3.9,3.9,0,0,0-.59-2,3.91,3.91,0,0,0-2.57-1.76,5.85,5.85,0,0,0-1.15-.07H130.61l-43,0H66.05c-7.17,0-14.35,0-21.52-.32a.73.73,0,0,1,0-1.46Z"/><path class="cls-2" d="M38.84.28l.39.11a.69.69,0,0,1,0,1.33l-.39.11a.8.8,0,1,1,0-1.55Z"/><path class="cls-3" d="M24.39,11.51l2.13,4.31a1.05,1.05,0,0,0,.79.58l4.75.69a1.05,1.05,0,0,1,.58,1.79L29.2,22.23a1.05,1.05,0,0,0-.3.93l.81,4.73A1.05,1.05,0,0,1,28.19,29l-4.25-2.24a1.05,1.05,0,0,0-1,0L18.7,29a1.05,1.05,0,0,1-1.53-1.11L18,23.17a1.05,1.05,0,0,0-.3-.93l-3.44-3.35a1.05,1.05,0,0,1,.58-1.79l4.75-.69a1.05,1.05,0,0,0,.79-.58l2.13-4.31A1.05,1.05,0,0,1,24.39,11.51Z"/><path class="cls-4" d="M23.72,9.65l2.35,4.77a1.16,1.16,0,0,0,.88.64l5.26.76a1.16,1.16,0,0,1,.65,2l-3.81,3.71a1.16,1.16,0,0,0-.34,1l.9,5.24A1.16,1.16,0,0,1,27.92,29l-4.71-2.48a1.16,1.16,0,0,0-1.08,0L17.42,29a1.16,1.16,0,0,1-1.69-1.23l.9-5.24a1.16,1.16,0,0,0-.34-1l-3.81-3.71a1.16,1.16,0,0,1,.65-2l5.26-.76a1.16,1.16,0,0,0,.88-.64l2.35-4.77A1.16,1.16,0,0,1,23.72,9.65Z"/><path class="cls-3" d="M51.4,11.51l2.13,4.31a1.05,1.05,0,0,0,.79.58l4.75.69a1.05,1.05,0,0,1,.58,1.79l-3.44,3.35a1.05,1.05,0,0,0-.3.93l.81,4.73A1.05,1.05,0,0,1,55.2,29l-4.25-2.24a1.05,1.05,0,0,0-1,0L45.71,29a1.05,1.05,0,0,1-1.53-1.11L45,23.17a1.05,1.05,0,0,0-.3-.93l-3.44-3.35a1.05,1.05,0,0,1,.58-1.79l4.75-.69a1.05,1.05,0,0,0,.79-.58l2.13-4.31A1.05,1.05,0,0,1,51.4,11.51Z"/><path class="cls-4" d="M50.73,9.65l2.35,4.77a1.16,1.16,0,0,0,.88.64l5.26.76a1.16,1.16,0,0,1,.65,2l-3.81,3.71a1.16,1.16,0,0,0-.34,1l.9,5.24A1.16,1.16,0,0,1,54.93,29l-4.71-2.48a1.16,1.16,0,0,0-1.08,0L44.43,29a1.16,1.16,0,0,1-1.69-1.23l.9-5.24a1.16,1.16,0,0,0-.34-1L39.5,17.81a1.16,1.16,0,0,1,.65-2l5.26-.76a1.16,1.16,0,0,0,.88-.64l2.35-4.77A1.16,1.16,0,0,1,50.73,9.65Z"/><path class="cls-3" d="M78.41,11.51l2.13,4.31a1.05,1.05,0,0,0,.79.58l4.75.69a1.05,1.05,0,0,1,.58,1.79l-3.44,3.35a1.05,1.05,0,0,0-.3.93l.81,4.73A1.05,1.05,0,0,1,82.21,29L78,26.77a1.05,1.05,0,0,0-1,0L72.72,29A1.05,1.05,0,0,1,71.2,27.9L72,23.17a1.05,1.05,0,0,0-.3-.93l-3.44-3.35a1.05,1.05,0,0,1,.58-1.79l4.75-.69a1.05,1.05,0,0,0,.79-.58l2.13-4.31A1.05,1.05,0,0,1,78.41,11.51Z"/><path class="cls-4" d="M77.74,9.65l2.35,4.77a1.16,1.16,0,0,0,.88.64l5.26.76a1.16,1.16,0,0,1,.65,2l-3.81,3.71a1.16,1.16,0,0,0-.34,1l.9,5.24A1.16,1.16,0,0,1,81.94,29l-4.71-2.48a1.16,1.16,0,0,0-1.08,0L71.44,29a1.16,1.16,0,0,1-1.69-1.23l.9-5.24a1.16,1.16,0,0,0-.34-1l-3.81-3.71a1.16,1.16,0,0,1,.65-2l5.26-.76a1.16,1.16,0,0,0,.88-.64l2.35-4.77A1.16,1.16,0,0,1,77.74,9.65Z"/><path class="cls-3" d="M105.42,11.51l2.13,4.31a1.05,1.05,0,0,0,.79.58l4.75.69a1.05,1.05,0,0,1,.58,1.79l-3.44,3.35a1.05,1.05,0,0,0-.3.93l.81,4.73A1.05,1.05,0,0,1,109.22,29L105,26.77a1.05,1.05,0,0,0-1,0L99.73,29a1.05,1.05,0,0,1-1.53-1.11L99,23.17a1.05,1.05,0,0,0-.3-.93l-3.44-3.35a1.05,1.05,0,0,1,.58-1.79l4.75-.69a1.05,1.05,0,0,0,.79-.58l2.13-4.31A1.05,1.05,0,0,1,105.42,11.51Z"/><path class="cls-4" d="M104.75,9.65l2.35,4.77a1.16,1.16,0,0,0,.88.64l5.26.76a1.16,1.16,0,0,1,.65,2l-3.81,3.71a1.16,1.16,0,0,0-.34,1l.9,5.24A1.16,1.16,0,0,1,109,29l-4.71-2.48a1.16,1.16,0,0,0-1.08,0L98.45,29a1.16,1.16,0,0,1-1.69-1.23l.9-5.24a1.16,1.16,0,0,0-.34-1l-3.81-3.71a1.16,1.16,0,0,1,.65-2l5.26-.76a1.16,1.16,0,0,0,.88-.64l2.35-4.77A1.16,1.16,0,0,1,104.75,9.65Z"/><path class="cls-3" d="M132.43,11.51l2.13,4.31a1.05,1.05,0,0,0,.79.58l4.75.69a1.05,1.05,0,0,1,.58,1.79l-3.44,3.35a1.05,1.05,0,0,0-.3.93l.81,4.73A1.05,1.05,0,0,1,136.23,29L132,26.77a1.05,1.05,0,0,0-1,0L126.74,29a1.05,1.05,0,0,1-1.53-1.11l.81-4.73a1.05,1.05,0,0,0-.3-.93l-3.44-3.35a1.05,1.05,0,0,1,.58-1.79l4.75-.69a1.05,1.05,0,0,0,.79-.58l2.13-4.31A1.05,1.05,0,0,1,132.43,11.51Z"/><path class="cls-4" d="M131.76,9.65l2.35,4.77a1.16,1.16,0,0,0,.88.64l5.26.76a1.16,1.16,0,0,1,.65,2l-3.81,3.71a1.16,1.16,0,0,0-.34,1l.9,5.24A1.16,1.16,0,0,1,136,29l-4.71-2.48a1.16,1.16,0,0,0-1.08,0L125.46,29a1.16,1.16,0,0,1-1.69-1.23l.9-5.24a1.16,1.16,0,0,0-.34-1l-3.81-3.71a1.16,1.16,0,0,1,.65-2l5.26-.76a1.16,1.16,0,0,0,.88-.64l2.35-4.77A1.16,1.16,0,0,1,131.76,9.65Z"/></g></g></svg>