<svg xmlns="http://www.w3.org/2000/svg" viewBox="0 0 153.07 64.91"><defs><style>.cls-1{fill:#fff;}.cls-2{fill:#717791;}.cls-3{fill:#fdd1be;}.cls-4,.cls-5{fill:none;stroke:#717791;stroke-linecap:round;stroke-linejoin:round;}.cls-5{stroke-width:4px;}</style></defs><title>reviews-none</title><g id="Layer_2" data-name="Layer 2"><g id="Layer_1-2" data-name="Layer 1"><rect class="cls-1" x="0.89" y="27.38" width="151.18" height="36.55" rx="2.62" ry="2.62"/><path class="cls-2" d="M44.53,26.65c7.17-.3,14.35-.32,21.52-.32H87.57l43,0h16.14a7.89,7.89,0,0,1,1.53.11,5.91,5.91,0,0,1,4.79,5.75V59.16a5.87,5.87,0,0,1-3.32,5.16,5.65,5.65,0,0,1-1.53.5,8,8,0,0,1-1.51.09h-26.9L33.7,64.84H5.79l-.4,0a5.48,5.48,0,0,1-1.55-.32A5.77,5.77,0,0,1,.05,59.78,7.22,7.22,0,0,1,0,59V32.76a7.91,7.91,0,0,1,.09-1.49,5.54,5.54,0,0,1,.49-1.5,5.76,5.76,0,0,1,5.07-3.25l5.4,0c3.59,0,7.17.11,10.76.26a.57.57,0,0,1,0,1.13c-3.59.15-7.17.22-10.76.26l-5.36,0a4,4,0,0,0-3.53,2.28,3.79,3.79,0,0,0-.34,1,6.2,6.2,0,0,0-.07,1.19V59a5.45,5.45,0,0,0,0,.56A4,4,0,0,0,4.44,62.8,6.25,6.25,0,0,0,6.8,63H33.7L119.79,63h26.9a6.07,6.07,0,0,0,1.17-.07,3.69,3.69,0,0,0,1-.33,3.91,3.91,0,0,0,2.21-3.44V32.25a3.9,3.9,0,0,0-.59-2,3.91,3.91,0,0,0-2.57-1.76,5.85,5.85,0,0,0-1.15-.07H130.61l-43,0H66.05c-7.17,0-14.35,0-21.52-.32a.73.73,0,0,1,0-1.46Z"/><path class="cls-2" d="M38.84,26.61l.39.11a.69.69,0,0,1,0,1.33l-.39.11a.8.8,0,1,1,0-1.55Z"/><path class="cls-3" d="M24.39,37.84l2.13,4.31a1.05,1.05,0,0,0,.79.58l4.75.69a1.05,1.05,0,0,1,.58,1.79L29.2,48.56a1.05,1.05,0,0,0-.3.93l.81,4.73a1.05,1.05,0,0,1-1.53,1.11L23.93,53.1a1.05,1.05,0,0,0-1,0L18.7,55.34a1.05,1.05,0,0,1-1.53-1.11L18,49.49a1.05,1.05,0,0,0-.3-.93l-3.44-3.35a1.05,1.05,0,0,1,.58-1.79l4.75-.69a1.05,1.05,0,0,0,.79-.58l2.13-4.31A1.05,1.05,0,0,1,24.39,37.84Z"/><path class="cls-4" d="M23.72,36l2.35,4.77a1.16,1.16,0,0,0,.88.64l5.26.76a1.16,1.16,0,0,1,.65,2l-3.81,3.71a1.16,1.16,0,0,0-.34,1l.9,5.24a1.16,1.16,0,0,1-1.69,1.23l-4.71-2.48a1.16,1.16,0,0,0-1.08,0l-4.71,2.48a1.16,1.16,0,0,1-1.69-1.23l.9-5.24a1.16,1.16,0,0,0-.34-1l-3.81-3.71a1.16,1.16,0,0,1,.65-2l5.26-.76a1.16,1.16,0,0,0,.88-.64L21.63,36A1.16,1.16,0,0,1,23.72,36Z"/><path class="cls-3" d="M51.4,37.84l2.13,4.31a1.05,1.05,0,0,0,.79.58l4.75.69a1.05,1.05,0,0,1,.58,1.79l-3.44,3.35a1.05,1.05,0,0,0-.3.93l.81,4.73a1.05,1.05,0,0,1-1.53,1.11L50.94,53.1a1.05,1.05,0,0,0-1,0l-4.25,2.24a1.05,1.05,0,0,1-1.53-1.11L45,49.49a1.05,1.05,0,0,0-.3-.93l-3.44-3.35a1.05,1.05,0,0,1,.58-1.79l4.75-.69a1.05,1.05,0,0,0,.79-.58l2.13-4.31A1.05,1.05,0,0,1,51.4,37.84Z"/><path class="cls-4" d="M50.73,36l2.35,4.77a1.16,1.16,0,0,0,.88.64l5.26.76a1.16,1.16,0,0,1,.65,2l-3.81,3.71a1.16,1.16,0,0,0-.34,1l.9,5.24a1.16,1.16,0,0,1-1.69,1.23l-4.71-2.48a1.16,1.16,0,0,0-1.08,0l-4.71,2.48a1.16,1.16,0,0,1-1.69-1.23l.9-5.24a1.16,1.16,0,0,0-.34-1L39.5,44.14a1.16,1.16,0,0,1,.65-2l5.26-.76a1.16,1.16,0,0,0,.88-.64L48.64,36A1.16,1.16,0,0,1,50.73,36Z"/><path class="cls-3" d="M78.41,37.84l2.13,4.31a1.05,1.05,0,0,0,.79.58l4.75.69a1.05,1.05,0,0,1,.58,1.79l-3.44,3.35a1.05,1.05,0,0,0-.3.93l.81,4.73a1.05,1.05,0,0,1-1.53,1.11L78,53.1a1.05,1.05,0,0,0-1,0l-4.25,2.24a1.05,1.05,0,0,1-1.53-1.11L72,49.49a1.05,1.05,0,0,0-.3-.93l-3.44-3.35a1.05,1.05,0,0,1,.58-1.79l4.75-.69a1.05,1.05,0,0,0,.79-.58l2.13-4.31A1.05,1.05,0,0,1,78.41,37.84Z"/><path class="cls-4" d="M77.74,36l2.35,4.77a1.16,1.16,0,0,0,.88.64l5.26.76a1.16,1.16,0,0,1,.65,2l-3.81,3.71a1.16,1.16,0,0,0-.34,1l.9,5.24a1.16,1.16,0,0,1-1.69,1.23l-4.71-2.48a1.16,1.16,0,0,0-1.08,0l-4.71,2.48a1.16,1.16,0,0,1-1.69-1.23l.9-5.24a1.16,1.16,0,0,0-.34-1l-3.81-3.71a1.16,1.16,0,0,1,.65-2l5.26-.76a1.16,1.16,0,0,0,.88-.64L75.65,36A1.16,1.16,0,0,1,77.74,36Z"/><path class="cls-3" d="M105.42,37.84l2.13,4.31a1.05,1.05,0,0,0,.79.58l4.75.69a1.05,1.05,0,0,1,.58,1.79l-3.44,3.35a1.05,1.05,0,0,0-.3.93l.81,4.73a1.05,1.05,0,0,1-1.53,1.11L105,53.1a1.05,1.05,0,0,0-1,0l-4.25,2.24a1.05,1.05,0,0,1-1.53-1.11L99,49.49a1.05,1.05,0,0,0-.3-.93l-3.44-3.35a1.05,1.05,0,0,1,.58-1.79l4.75-.69a1.05,1.05,0,0,0,.79-.58l2.13-4.31A1.05,1.05,0,0,1,105.42,37.84Z"/><path class="cls-4" d="M104.75,36l2.35,4.77a1.16,1.16,0,0,0,.88.64l5.26.76a1.16,1.16,0,0,1,.65,2l-3.81,3.71a1.16,1.16,0,0,0-.34,1l.9,5.24A1.16,1.16,0,0,1,109,55.35l-4.71-2.48a1.16,1.16,0,0,0-1.08,0l-4.71,2.48a1.16,1.16,0,0,1-1.69-1.23l.9-5.24a1.16,1.16,0,0,0-.34-1l-3.81-3.71a1.16,1.16,0,0,1,.65-2l5.26-.76a1.16,1.16,0,0,0,.88-.64L102.66,36A1.16,1.16,0,0,1,104.75,36Z"/><path class="cls-3" d="M132.43,37.84l2.13,4.31a1.05,1.05,0,0,0,.79.58l4.75.69a1.05,1.05,0,0,1,.58,1.79l-3.44,3.35a1.05,1.05,0,0,0-.3.93l.81,4.73a1.05,1.05,0,0,1-1.53,1.11L132,53.1a1.05,1.05,0,0,0-1,0l-4.25,2.24a1.05,1.05,0,0,1-1.53-1.11l.81-4.73a1.05,1.05,0,0,0-.3-.93l-3.44-3.35a1.05,1.05,0,0,1,.58-1.79l4.75-.69a1.05,1.05,0,0,0,.79-.58l2.13-4.31A1.05,1.05,0,0,1,132.43,37.84Z"/><path class="cls-4" d="M131.76,36l2.35,4.77a1.16,1.16,0,0,0,.88.64l5.26.76a1.16,1.16,0,0,1,.65,2l-3.81,3.71a1.16,1.16,0,0,0-.34,1l.9,5.24A1.16,1.16,0,0,1,136,55.35l-4.71-2.48a1.16,1.16,0,0,0-1.08,0l-4.71,2.48a1.16,1.16,0,0,1-1.69-1.23l.9-5.24a1.16,1.16,0,0,0-.34-1l-3.81-3.71a1.16,1.16,0,0,1,.65-2l5.26-.76a1.16,1.16,0,0,0,.88-.64L129.67,36A1.16,1.16,0,0,1,131.76,36Z"/><line class="cls-5" x1="72.77" y1="3.17" x2="83.91" y2="14.9"/><line class="cls-5" x1="70.43" y1="14.9" x2="84.5" y2="2"/></g></g></svg>