<svg xmlns="http://www.w3.org/2000/svg" viewBox="0 0 188.66 151.09"><defs><style>.cls-1,.cls-3,.cls-5{fill:#e5eefd;}.cls-1{stroke:#717791;stroke-linecap:round;stroke-linejoin:round;stroke-width:2.5px;}.cls-2{fill:#717791;}.cls-4{fill:#fff;}.cls-5{fill-rule:evenodd;}</style></defs><title>type-desktop</title><g id="Layer_2" data-name="Layer 2"><g id="Layer_1-2" data-name="Layer 1"><g id="iMac"><path class="cls-1" d="M115.93,129.43a41.17,41.17,0,0,0,1.8,7.86c1.6,4.55,3.78,7,6.4,11.37H65.06c3.42-5.5,6.07-7.95,7.71-15.3.24-1.08.46-2.27.66-3.59"/><path class="cls-2" d="M117.08,129.27a35.31,35.31,0,0,0,2.64,9.86c1.39,3.05,3.56,5.84,5.4,8.94h0a1.17,1.17,0,0,1-.41,1.6,1.18,1.18,0,0,1-.6.16H65.06a1.17,1.17,0,0,1-1-1.75l0,0c.78-1.34,1.61-2.64,2.45-3.9s1.63-2.51,2.35-3.77a25.11,25.11,0,0,0,1.77-4c.25-.68.49-1.37.78-2.06l.39-1a3.83,3.83,0,0,1,.53-1.06.74.74,0,0,1,1.32.31v0a8.34,8.34,0,0,1-.14,2.33,14.29,14.29,0,0,1-.52,2.31,25.82,25.82,0,0,1-1.88,4.39,42.52,42.52,0,0,1-2.5,4l-2.56,3.72-1-1.79h59.07l-1,1.77c-.89-1.48-1.86-2.93-2.83-4.42a32.37,32.37,0,0,1-5.52-15.25,1.17,1.17,0,1,1,2.31-.33Z"/><rect class="cls-1" x="62.27" y="148.67" width="64.27" height="1.17"/><path class="cls-1" d="M1.47,47.34v77.86a4.23,4.23,0,0,0,4.23,4.23H183.11a4.23,4.23,0,0,0,4.23-4.23V7.07a5.82,5.82,0,0,0-5.82-5.82H7A5.57,5.57,0,0,0,1.47,6.82v24.6"/><polyline class="cls-3" points="167.25 109.09 1.47 109.09 1.47 63.78"/><path class="cls-2" d="M167.25,109.65a4.26,4.26,0,0,1-2.59.65c-.86,0-1.73,0-2.59,0l-5.18-.1H1.47a1.15,1.15,0,0,1-1.15-1.11v0c-.11-3.78-.15-7.55-.2-11.33l0-11.33L.16,75.11c.12-3.78-.22-7.55.81-11.33a.52.52,0,0,1,1,0c1,3.78.69,7.55.81,11.33l.08,11.33,0,11.33c-.05,3.78-.09,7.55-.2,11.33l-1.15-1.15H156.89l5.18-.1c.86,0,1.73,0,2.59,0a4.26,4.26,0,0,1,2.59.65.7.7,0,0,1,.16,1A.72.72,0,0,1,167.25,109.65Z"/><line class="cls-3" x1="183.34" y1="109.09" x2="172.79" y2="109.09"/><path class="cls-2" d="M183.34,109.52a1,1,0,0,1-.66.49l-.66.17a5.66,5.66,0,0,1-1.32.16c-.88,0-1.76,0-2.64,0s-1.76,0-2.64-.07l-1.32-.07a1.71,1.71,0,0,1-.66-.14l-.33-.16c-.11-.08-.22,0-.33-.29a1.42,1.42,0,0,1,0-1.12c.11-.25.22-.22.33-.29l.33-.16a1.71,1.71,0,0,1,.66-.14l1.32-.07c.88,0,1.76-.08,2.64-.07s1.76,0,2.64,0A5.66,5.66,0,0,1,182,108l.66.17a1,1,0,0,1,.66.49A.84.84,0,0,1,183.34,109.52Z"/><path class="cls-2" d="M.91,38a13.91,13.91,0,0,1-.66-5.09c0-1.7,0-3.4,0-5.09.05-3.4.1-6.79.09-10.19V7.47c0-.45,0-.8,0-1.33A6.09,6.09,0,0,1,.6,4.6,6.39,6.39,0,0,1,2.22,2,6.68,6.68,0,0,1,4.85.41,8.7,8.7,0,0,1,7.71.1H180.87c.44,0,.81,0,1.31,0a6.63,6.63,0,0,1,4.21,1.67,6.24,6.24,0,0,1,1.73,2.55,7.55,7.55,0,0,1,.37,2.9V68.34c0,6.79.06,13.58.14,20.37,0,3.4.06,6.79,0,10.19l0,5.09a16.46,16.46,0,0,1-.75,5.09.53.53,0,0,1-1,0,16.46,16.46,0,0,1-.75-5.09l0-5.09c-.05-3.4,0-6.79,0-10.19.08-6.79.15-13.58.14-20.37V7.23A5.28,5.28,0,0,0,186,5.11a3.94,3.94,0,0,0-1.1-1.62,4.19,4.19,0,0,0-1.75-.94,4.14,4.14,0,0,0-1-.15c-.35,0-.83,0-1.24,0H7.71C4.57,2.07,2.2,4.28,2.62,7.47V17.65c0,3.4,0,6.79.09,10.19,0,1.7,0,3.4,0,5.09A13.91,13.91,0,0,1,2,38,.62.62,0,0,1,.91,38Z"/><line class="cls-3" x1="1.47" y1="40.77" x2="1.47" y2="40.45"/><path class="cls-2" d="M.22,40.77a.93.93,0,0,1,.2-.16,3.13,3.13,0,0,1,.32-.16,2.07,2.07,0,0,1,1.45,0,3.13,3.13,0,0,1,.32.16.93.93,0,0,1,.2.16,1.47,1.47,0,1,1-2.5,0Z"/><polyline class="cls-4" points="146.16 8.65 179.9 8.64 179.94 101.64 8.92 101.7 9.15 8.7 141.6 8.65"/><path class="cls-2" d="M146.16,8a40.45,40.45,0,0,1,8.44-.58L163,7.31c5.62,0,11.25,0,16.87.17h0a1.16,1.16,0,0,1,1.12,1.15l0,93a1.15,1.15,0,0,1-1.15,1.15l-171,.06a1.15,1.15,0,0,1-1.15-1.15h0L8,8.7A1.16,1.16,0,0,1,9.15,7.55l33.11-.11H75.37l33.11.08,16.56,0,8.28,0a43.26,43.26,0,0,1,8.28.53.54.54,0,0,1,0,1.05,43.26,43.26,0,0,1-8.28.53l-8.28,0-16.56.06-33.11.11-33.11,0L9.15,9.85,10.31,8.7l-.24,93-1.15-1.16,171-.06-1.15,1.15,0-93,1.15,1.15c-5.62.16-11.25.18-16.87.19l-8.44-.06a40.45,40.45,0,0,1-8.44-.57.71.71,0,0,1,0-1.39Z"/><path class="cls-5" d="M95.26,5.46a1,1,0,1,1-.06-1.22"/><path class="cls-2" d="M95.91,5.9A1.35,1.35,0,0,1,95.18,7a1.86,1.86,0,0,1-1.37.14A2.22,2.22,0,0,1,92.12,5a2.16,2.16,0,0,1,1.5-2.11,1.83,1.83,0,0,1,1.28,0,1.18,1.18,0,0,1,.72.94.55.55,0,0,1-.38.57l-.49.15c-.24.07-.32.2-.34.26s0,.1,0,.12.19,0,.21-.11a.2.2,0,0,0-.19-.22c-.08-.05-.28.17.13.36l1.1.52A.37.37,0,0,1,95.91,5.9Z"/></g></g></g></svg>