<svg xmlns="http://www.w3.org/2000/svg" viewBox="0 0 62 117.2"><defs><style>.cls-1,.cls-4{fill:#e5eefd;}.cls-1,.cls-3{fill-rule:evenodd;}.cls-2{fill:#717791;}.cls-3{fill:#fff;}</style></defs><title>type-iphone</title><g id="Layer_2" data-name="Layer 2"><g id="Layer_1-2" data-name="Layer 1"><g id="iPhone"><g id="body"><path class="cls-1" d="M60.68,67.81V7.14A5.94,5.94,0,0,0,54.74,1.2H7.19A5.94,5.94,0,0,0,1.25,7.14V110A5.94,5.94,0,0,0,7.19,116H54.74A5.94,5.94,0,0,0,60.68,110V75.59"/><path class="cls-2" d="M60.15,67.81a49.91,49.91,0,0,1-.73-10.32l-.06-10.32.07-20.65.05-10.32,0-5.16V7.16a5.5,5.5,0,0,0-.11-1A4.75,4.75,0,0,0,55,2.38H42.14l-20.65,0H7.3a6.07,6.07,0,0,0-1,.1A4.8,4.8,0,0,0,3,4.87a4.69,4.69,0,0,0-.56,2c0,.3,0,.8,0,1.21V24.81l0,20.65V110a4.71,4.71,0,0,0,3.44,4.55,4.28,4.28,0,0,0,1,.16H54.62a4.74,4.74,0,0,0,4.66-3.39,7.11,7.11,0,0,0,.2-2.22V85.91a49.68,49.68,0,0,1,.66-10.32.54.54,0,0,1,1.06,0,49.68,49.68,0,0,1,.66,10.32v23.23a9.46,9.46,0,0,1-.29,2.9,7.16,7.16,0,0,1-7,5.13H7.19l-.39,0a6.75,6.75,0,0,1-1.54-.25A7.19,7.19,0,0,1,0,110V45.46L0,24.81V8c0-.45,0-.81,0-1.37a7.11,7.11,0,0,1,.86-3A7.22,7.22,0,0,1,5.78.14,8.5,8.5,0,0,1,7.3,0h14.2L42.14,0H54.4c.2,0,.43,0,.7,0a7.08,7.08,0,0,1,6.57,5.57,7.83,7.83,0,0,1,.16,1.53V11l0,5.16.05,10.32L62,47.16l-.06,10.32a49.92,49.92,0,0,1-.73,10.32.54.54,0,0,1-1.06,0Z"/><path class="cls-3" d="M7.69,35.35V95.58a1.93,1.93,0,0,0,1.93,1.93H52.31a1.93,1.93,0,0,0,1.93-1.93V15.17a1.93,1.93,0,0,0-1.93-1.93H9.62a1.93,1.93,0,0,0-1.93,1.93V26.82"/><path class="cls-2" d="M8.35,35.35a42.91,42.91,0,0,1,.54,7.81L9,51,9,66.57,9,82.18,9,90v5.6a.8.8,0,0,0,0,.09.68.68,0,0,0,.39.52l.16,0H52.23a1.09,1.09,0,0,0,.22,0,.67.67,0,0,0,.29-.15.63.63,0,0,0,.18-.27c0-.14,0-.1,0-.52V79.67l0-62.45v-2.1s0-.06,0-.08a.73.73,0,0,0-.06-.16.67.67,0,0,0-.22-.26.7.7,0,0,0-.31-.12H41.78l-15.61,0-15.61,0h-1a.7.7,0,0,0-.35.1.72.72,0,0,0-.36.6V19c-.06,2.6.2,5.2-.49,7.81a.74.74,0,0,1-1.43,0c-.68-2.6-.43-5.2-.49-7.81V15.07a3.13,3.13,0,0,1,3.07-3h1l15.61,0,15.61,0H52.27l.37,0a3.2,3.2,0,0,1,2.8,2.53,3.61,3.61,0,0,1,.05.4c0,.14,0,.28,0,.34v2l0,62.45V95.28a3.73,3.73,0,0,1-.2,1.4A3.19,3.19,0,0,1,54.41,98a3.22,3.22,0,0,1-1.44.72,3.75,3.75,0,0,1-.75.07H9.78a3.89,3.89,0,0,1-.7,0,3.1,3.1,0,0,1-.77-.23A3.18,3.18,0,0,1,6.47,96a3.25,3.25,0,0,1,0-.4V90l0-7.81,0-15.61L6.43,51l.05-7.81A42.91,42.91,0,0,1,7,35.35a.67.67,0,0,1,1.32,0Z"/><line class="cls-4" x1="7.69" y1="30.66" x2="7.69" y2="31.31"/><path class="cls-2" d="M8.81,30.66a.6.6,0,0,1,.12.32.32.32,0,0,1-.12.32,1.69,1.69,0,0,1-2.24,0A.32.32,0,0,1,6.45,31a.6.6,0,0,1,.12-.32,1.38,1.38,0,0,1,1.93-.31A1.42,1.42,0,0,1,8.81,30.66Z"/><line class="cls-4" x1="23.8" y1="6.66" x2="35.04" y2="6.66"/><path class="cls-2" d="M23.8,6.29a40.21,40.21,0,0,1,5.62-.75c.94-.08,1.87-.1,2.81-.14A6.72,6.72,0,0,1,35,5.94a.79.79,0,0,1,0,1.43,6.72,6.72,0,0,1-2.81.54c-.94,0-1.87-.06-2.81-.14A40.2,40.2,0,0,1,23.8,7a.38.38,0,0,1,0-.74Z"/><path class="cls-1" d="M27.24,108.69A4.24,4.24,0,0,0,31,110.87a4.28,4.28,0,1,0-4.05-5.66"/><path class="cls-2" d="M27.72,108.43a3.45,3.45,0,0,0,2,1.24,3,3,0,0,0,1.1,0,4.67,4.67,0,0,0,1-.17,3,3,0,0,0,2-3.18,3.15,3.15,0,0,0-2.58-2.71,4.34,4.34,0,0,0-4,1.72l0,0a.4.4,0,0,1-.71-.27,4.06,4.06,0,0,1,1.58-3,4.9,4.9,0,0,1,3.48-1A5.43,5.43,0,0,1,35,102.68a5.5,5.5,0,0,1,.58,7,5.67,5.67,0,0,1-3,2.17,5,5,0,0,1-1.84.21,5.21,5.21,0,0,1-1.73-.57A5,5,0,0,1,26.76,109a.55.55,0,0,1,.94-.55Z"/></g></g></g></g></svg>