<svg xmlns="http://www.w3.org/2000/svg" viewBox="0 0 65.1 117">
    <defs>
        <style>
            .cls-1 {
                fill: none;
            }
            .cls-2 {
                fill: #93b9f4;
            }
            .cls-3 {
                fill: #fff;
            }
            .cls-4 {
                fill: #e5eefd;
            }
            .cls-5 {
                fill: #717791;
            }
        </style>
    </defs>
    <title>type-android</title>
    <g id="Layer_2" data-name="Layer 2">
        <g id="Layer_1-2" data-name="Layer 1"><path class="cls-1" d="M24.52,88.76"/><path class="cls-2" d="M63.73,61.74c0,.34,0,.69-.06,1"/><path class="cls-3" d="M63.77,13.72v89.55a12.43,12.43,0,0,1-12.43,12.43H13.72A12.41,12.41,0,0,1,1.29,103.26V13.72a12.19,12.19,0,0,1,.18-2.09A12.43,12.43,0,0,1,13.72,1.29H51.34A12.42,12.42,0,0,1,63.58,11.62,11.67,11.67,0,0,1,63.77,13.72Z"/><path class="cls-4" d="M63.77,101.57v1.69a12.43,12.43,0,0,1-12.43,12.43H13.72A12.41,12.41,0,0,1,1.29,103.26v-1.69Z"/><path class="cls-4" d="M63.58,11.62H1.46A12.43,12.43,0,0,1,13.71,1.29H51.33A12.42,12.42,0,0,1,63.58,11.62Z"/><path class="cls-5" d="M0,33.4a.29.29,0,0,1,0-.32,1.08,1.08,0,0,1,.28-.32,1.52,1.52,0,0,1,1.85,0,1.08,1.08,0,0,1,.28.32.29.29,0,0,1,0,.32,1.46,1.46,0,0,1-2,.5A1.48,1.48,0,0,1,0,33.4Z"/><path class="cls-5" d="M.58,30.15c-.19-3.34-.3-6.67-.44-10-.07-1.67-.1-3.34-.11-5V13.88c0-.43,0-.91.06-1.36A14.57,14.57,0,0,1,.6,9.82,13.67,13.67,0,0,1,12.71.07c1-.07,1.76,0,2.59-.05h35A22.37,22.37,0,0,1,53,.11a13.6,13.6,0,0,1,5.2,1.74,13.76,13.76,0,0,1,6.45,8.6,10,10,0,0,1,.26,1.36A10,10,0,0,1,65,13.18c.05.93,0,1.7,0,2.55v25l0,40v22.53c0,.46,0,.92-.08,1.38s-.13.91-.22,1.37a13.76,13.76,0,0,1-11.35,10.73,8.71,8.71,0,0,1-1.37.14c-.47,0-.92,0-1.32,0H33.23c-6.7,0-13.3,0-20.07,0A13.71,13.71,0,0,1,.72,107.59a14.12,14.12,0,0,1-.6-2.69,22.81,22.81,0,0,1-.1-2.65l0-20,0-20v-10a60.12,60.12,0,0,1,.62-10,.61.61,0,0,1,1.21,0,60.12,60.12,0,0,1,.62,10v10l0,20,0,20a20.33,20.33,0,0,0,.09,2.35,11.59,11.59,0,0,0,.49,2.19,11.16,11.16,0,0,0,10.13,7.6H50.75c.43,0,.82,0,1.18,0a6.49,6.49,0,0,0,1.11-.12,11.13,11.13,0,0,0,7.39-4.61,11,11,0,0,0,1.77-4.07l.17-1.1.06-1.12V80.81l0-40v-25c0-.81,0-1.72,0-2.45a7.61,7.61,0,0,0-.1-1.12,7.63,7.63,0,0,0-.21-1.1,11.17,11.17,0,0,0-5.23-7,11,11,0,0,0-4.22-1.42,19.82,19.82,0,0,0-2.34-.09h-35c-.83,0-1.7,0-2.41,0A11.15,11.15,0,0,0,3,10.54a12.07,12.07,0,0,0-.42,2.21c0,.38,0,.73-.05,1.14v1.25c0,1.67,0,3.34-.11,5-.14,3.34-.25,6.67-.44,10a.7.7,0,0,1-1.4,0Z"/><path class="cls-5" d="M28.33,5.88a9.74,9.74,0,0,1,2.19-.42,18.19,18.19,0,0,1,2.19,0,23,23,0,0,1,4.38.47.78.78,0,0,1,0,1.53,23,23,0,0,1-4.38.47,18.22,18.22,0,0,1-2.19,0,9.74,9.74,0,0,1-2.19-.42.81.81,0,0,1,0-1.53Z"/><path class="cls-5" d="M36.37,111.07a3.66,3.66,0,0,1-2.25,2.19,4.71,4.71,0,0,1-3.3-.09,5,5,0,0,1-1.67-8.31,4.94,4.94,0,0,1,2.91-1.32,4.54,4.54,0,0,1,3,.75,4,4,0,0,1,1.66,2.43.45.45,0,0,1-.8.36v0a3.61,3.61,0,0,0-3.59-1.55,2.83,2.83,0,0,0-2.27,2.55,2.78,2.78,0,0,0,1.69,2.77,3.29,3.29,0,0,0,1.72.16,5.47,5.47,0,0,0,1.88-.68l.07,0a.67.67,0,0,1,1,.8Z"/><path class="cls-5" d="M57.39,101.22a11.48,11.48,0,0,1,1.55-.41c.52-.09,1-.17,1.55-.21a17.72,17.72,0,0,1,3.11-.05,1.25,1.25,0,0,1,0,2.5,17.72,17.72,0,0,1-3.11-.05c-.52,0-1-.12-1.55-.21a11.5,11.5,0,0,1-1.55-.41.61.61,0,0,1,0-1.15Z"/><path class="cls-5" d="M46.67,101.21a1.7,1.7,0,0,1,.86-.61c.29-.06.57-.19.86.44a1.82,1.82,0,0,1,0,1.51c-.29.62-.57.5-.86.44a1.7,1.7,0,0,1-.86-.61A.94.94,0,0,1,46.67,101.21Z"/><path class="cls-5" d="M1.36,100.54c6.79-.17,13.58-.16,20.36-.15l10.18.12c3.39.08,6.79-.11,10.18.79a.5.5,0,0,1,0,1c-3.39.9-6.79.71-10.18.79l-10.18.12c-6.79,0-13.58,0-20.36-.15a1.25,1.25,0,0,1,0-2.5Z"/><path class="cls-5" d="M8.43,11.2a100.32,100.32,0,0,1,13.79-.65L36,10.43c9.19,0,18.39,0,27.58.08a1.25,1.25,0,0,1,0,2.5c-9.19.12-18.39.11-27.58.08L22.23,13a100.32,100.32,0,0,1-13.79-.65.56.56,0,0,1,0-1.11Z"/></g>
    </g>
</svg>
