<svg xmlns="http://www.w3.org/2000/svg" viewBox="0 0 120.03 67.85"><defs><style>.cls-1{fill:#3f72ba;opacity:0.2;}.cls-2{fill:#fff;}.cls-3{fill:#717791;}.cls-4{fill:#b8d4ff;}.cls-5,.cls-6{fill:none;}.cls-5{stroke:#717791;stroke-linecap:round;stroke-linejoin:round;stroke-width:2.5px;}</style></defs><title>uploads</title><g id="Layer_2" data-name="Layer 2"><g id="Layer_1-2" data-name="Layer 1"><path class="cls-1" d="M119.87,47.31a24.56,24.56,0,0,1-.38,4.33A56.6,56.6,0,0,0,93.63,31.51,184.93,184.93,0,0,0,2.95,54l0,0A19.71,19.71,0,0,1,20.08,24.68a19.07,19.07,0,0,1,3,.24A31.4,31.4,0,0,1,72.38,6,25,25,0,0,1,107.62,25.8,25,25,0,0,1,119.87,47.31Z"/><path class="cls-2" d="M12.61,65.28l100.43-1c0-.75,2.18-2.87,2.23-3.62,3.08-7.64,4.11-5.54,4.47-10.94a17,17,0,0,0-6.35-14.24c-2.54-2-5.68-3.27-7.79-5.71-4-4.63-3.44-12.4-8.31-16.1-2.09-1.59-12.44-6.32-15-5.73C71.66,10.47,68,11.72,67.79,7.4c-.16-2.88-5.69-1-8.57-1.11-7.76-.37-15.37.17-21.74,4.61S26,23.66,23.69,31.06A19.68,19.68,0,0,0,4.33,38.64C0,44.58,0,49.85,3.64,56.22A25,25,0,0,0,12.61,65.28Z"/><path class="cls-3" d="M68.62,12a19.54,19.54,0,0,1,11.59-5,23.07,23.07,0,0,1,25.58,23.13l-1-1.23h0a18.45,18.45,0,0,1,14.11,11.32,20.71,20.71,0,0,1,1,9.2,18.81,18.81,0,0,1-3.36,8.5.76.76,0,0,1-1.24-.88,16.13,16.13,0,0,0,2.81-7.82,14.8,14.8,0,0,0-1.45-8.08,16.7,16.7,0,0,0-12.31-9.78h0a1.25,1.25,0,0,1-1-1.23A21,21,0,0,0,74.74,10.43,38.32,38.32,0,0,0,69.44,13h0A.68.68,0,0,1,68.62,12Z"/><path class="cls-3" d="M64.24,16.3a1.06,1.06,0,0,1,0-.81,2.86,2.86,0,0,1,.39-.5,4.55,4.55,0,0,1,1.06-.9,1.12,1.12,0,0,1,1.53,1.55l0,.05c-.2.31-.38.59-.6.9a3.19,3.19,0,0,1-.38.46,1,1,0,0,1-.75.16h-.06A1.35,1.35,0,0,1,64.24,16.3Z"/><path class="cls-3" d="M25.36,38.41a34.44,34.44,0,0,1-.92-4.26c-.11-.72-.21-1.44-.27-2.18,0-.37-.06-.73-.06-1.12a4.76,4.76,0,0,1,0-.6l.07-.55a29.52,29.52,0,0,1,2.38-8.45A29.88,29.88,0,0,1,71.31,9.45a1.25,1.25,0,1,1-1.47,2h0a27.31,27.31,0,0,0-30.61-1.32,27.73,27.73,0,0,0-10.64,12A27.33,27.33,0,0,0,26.35,30a21.13,21.13,0,0,0-.26,4,22.26,22.26,0,0,0,.48,4.1h0a.63.63,0,0,1-1.22.3Z"/><path class="cls-3" d="M11.16,65.28A19.25,19.25,0,0,1,1.47,55.16a19.56,19.56,0,0,1,9.26-24.82,19.89,19.89,0,0,1,14.32-1.47h0a1.25,1.25,0,1,1-.67,2.41h0a17.54,17.54,0,0,0-12.64,1A17.73,17.73,0,0,0,3,41.69,18,18,0,0,0,2.9,54.6a18.38,18.38,0,0,0,8.71,9.77.51.51,0,0,1-.44.91Z"/><path class="cls-4" d="M74.23,44H69a1.36,1.36,0,0,0-1.36,1.36V64.7a1.9,1.9,0,0,1-1.9,1.9H58.45a1.9,1.9,0,0,1-1.9-1.9V45.4A1.36,1.36,0,0,0,55.19,44H50a1.62,1.62,0,0,1-1.27-2.64L60,27.37a2.7,2.7,0,0,1,4.21,0l11.28,14A1.62,1.62,0,0,1,74.23,44Z"/><line class="cls-5" x1="56.55" y1="57.85" x2="56.55" y2="57.56"/><path class="cls-5" d="M56.55,52.15V45.4A1.36,1.36,0,0,0,55.19,44H50a1.62,1.62,0,0,1-1.27-2.64L60,27.37a2.7,2.7,0,0,1,4.21,0l11.28,14A1.62,1.62,0,0,1,74.23,44H69a1.36,1.36,0,0,0-1.36,1.36V64.7a1.9,1.9,0,0,1-1.9,1.9H58.45a1.9,1.9,0,0,1-1.9-1.9V61.81"/><path class="cls-6" d="M94.08,31.51h-.45A184.93,184.93,0,0,0,2.95,54l0,0"/><path class="cls-6" d="M119.49,51.64A56.6,56.6,0,0,0,93.63,31.51c-.41-.17-.82-.32-1.24-.47"/></g></g></svg>