<svg xmlns="http://www.w3.org/2000/svg" viewBox="0 0 123.64 72.61"><defs><style>.cls-1{fill:#3f72ba;opacity:0.2;}.cls-2{fill:#fff;}.cls-3{fill:#717791;}.cls-4{fill:#b8d4ff;}.cls-5,.cls-6,.cls-7{fill:none;}.cls-5,.cls-7{stroke:#717791;stroke-linecap:round;stroke-linejoin:round;}.cls-5{stroke-width:2.5px;}.cls-7{stroke-width:4px;}</style></defs><title>uploads-notsure</title><g id="Layer_2" data-name="Layer 2"><g id="Layer_1-2" data-name="Layer 1"><path class="cls-1" d="M119.87,52.07a24.56,24.56,0,0,1-.38,4.33A56.6,56.6,0,0,0,93.63,36.27,184.93,184.93,0,0,0,2.95,58.81l0,0A19.71,19.71,0,0,1,20.08,29.44a19.07,19.07,0,0,1,3,.24A31.4,31.4,0,0,1,72.38,10.81a25,25,0,0,1,35.23,19.75A25,25,0,0,1,119.87,52.07Z"/><path class="cls-2" d="M12.61,70l100.43-1c0-.75,2.18-2.87,2.23-3.62,3.08-7.64,4.11-5.54,4.47-10.94a17,17,0,0,0-6.35-14.24c-2.54-2-5.68-3.27-7.79-5.71-4-4.63-3.44-12.4-8.31-16.1-2.09-1.59-12.44-6.32-15-5.73C71.66,15.23,68,16.48,67.79,12.16c-.16-2.88-5.69-1-8.57-1.11-7.76-.37-15.37.17-21.74,4.61S26,28.42,23.69,35.83A19.68,19.68,0,0,0,4.33,43.41C0,49.34,0,54.61,3.64,61A25,25,0,0,0,12.61,70Z"/><path class="cls-3" d="M68.62,16.73a19.54,19.54,0,0,1,11.59-5,23.07,23.07,0,0,1,25.58,23.13l-1-1.23h0a18.44,18.44,0,0,1,14.11,11.32,20.72,20.72,0,0,1,1,9.2,18.81,18.81,0,0,1-3.36,8.5.76.76,0,0,1-1.24-.88,16.13,16.13,0,0,0,2.81-7.82,14.8,14.8,0,0,0-1.45-8.08A16.7,16.7,0,0,0,104.33,36h0a1.25,1.25,0,0,1-1-1.23A21,21,0,0,0,74.74,15.19a38.32,38.32,0,0,0-5.3,2.61h0a.68.68,0,0,1-.81-1.07Z"/><path class="cls-3" d="M64.24,21.07a1.06,1.06,0,0,1,0-.81,2.85,2.85,0,0,1,.39-.5,4.55,4.55,0,0,1,1.06-.9,1.12,1.12,0,0,1,1.53,1.55l0,.05c-.2.31-.38.59-.6.9a3.19,3.19,0,0,1-.38.46,1,1,0,0,1-.75.16h-.06A1.35,1.35,0,0,1,64.24,21.07Z"/><path class="cls-3" d="M25.36,43.17a34.44,34.44,0,0,1-.92-4.26c-.11-.72-.21-1.44-.27-2.18,0-.37-.06-.73-.06-1.12a4.77,4.77,0,0,1,0-.6l.07-.55A29.53,29.53,0,0,1,26.58,26,29.88,29.88,0,0,1,71.31,14.21a1.25,1.25,0,0,1-1.47,2h0A27.31,27.31,0,0,0,39.23,14.9a27.73,27.73,0,0,0-10.64,12,27.33,27.33,0,0,0-2.23,7.81,21.13,21.13,0,0,0-.26,4,22.26,22.26,0,0,0,.48,4.1h0a.63.63,0,0,1-1.22.3Z"/><path class="cls-3" d="M11.16,70A19.25,19.25,0,0,1,1.47,59.93,19.56,19.56,0,0,1,10.73,35.1a19.89,19.89,0,0,1,14.32-1.47h0A1.25,1.25,0,0,1,24.39,36h0a17.54,17.54,0,0,0-12.64,1A17.73,17.73,0,0,0,3,46.45,18,18,0,0,0,2.9,59.36a18.38,18.38,0,0,0,8.71,9.77.51.51,0,0,1-.44.91Z"/><path class="cls-4" d="M74.23,48.8H69a1.36,1.36,0,0,0-1.36,1.36v19.3a1.9,1.9,0,0,1-1.9,1.9H58.45a1.9,1.9,0,0,1-1.9-1.9V50.16a1.36,1.36,0,0,0-1.36-1.36H50a1.62,1.62,0,0,1-1.27-2.64L60,32.13a2.7,2.7,0,0,1,4.21,0l11.28,14A1.62,1.62,0,0,1,74.23,48.8Z"/><line class="cls-5" x1="56.55" y1="62.62" x2="56.55" y2="62.32"/><path class="cls-5" d="M56.55,56.91V50.16a1.36,1.36,0,0,0-1.36-1.36H50a1.62,1.62,0,0,1-1.27-2.64L60,32.13a2.7,2.7,0,0,1,4.21,0l11.28,14a1.62,1.62,0,0,1-1.27,2.64H69a1.36,1.36,0,0,0-1.36,1.36v19.3a1.9,1.9,0,0,1-1.9,1.9H58.45a1.9,1.9,0,0,1-1.9-1.9V66.57"/><path class="cls-6" d="M94.08,36.27h-.45A184.93,184.93,0,0,0,2.95,58.81l0,0"/><path class="cls-6" d="M119.49,56.4A56.6,56.6,0,0,0,93.63,36.27c-.41-.17-.82-.32-1.24-.47"/><path class="cls-7" d="M114.29,15.33l.42-3.68s6.93,1.12,6.93-4.32S114.29,2,114.29,2"/><line class="cls-7" x1="114.29" y1="21.33" x2="114.29" y2="21.17"/></g></g></svg>