<svg xmlns="http://www.w3.org/2000/svg" viewBox="0 0 126.18 72.31"><defs><style>.cls-1{fill:#3f72ba;opacity:0.2;}.cls-2{fill:#fff;}.cls-3{fill:#717791;}.cls-4{fill:#b8d4ff;}.cls-5,.cls-6,.cls-7{fill:none;}.cls-5,.cls-7{stroke:#717791;stroke-linecap:round;stroke-linejoin:round;}.cls-5{stroke-width:2.5px;}.cls-7{stroke-width:4px;}</style></defs><title>uploads-none</title><g id="Layer_2" data-name="Layer 2"><g id="Layer_1-2" data-name="Layer 1"><path class="cls-1" d="M119.87,51.77a24.56,24.56,0,0,1-.38,4.33A56.6,56.6,0,0,0,93.63,36,184.93,184.93,0,0,0,2.95,58.5l0,0A19.71,19.71,0,0,1,20.08,29.14a19.07,19.07,0,0,1,3,.24A31.4,31.4,0,0,1,72.38,10.51a25,25,0,0,1,35.23,19.75A25,25,0,0,1,119.87,51.77Z"/><path class="cls-2" d="M12.61,69.74l100.43-1c0-.75,2.18-2.87,2.23-3.62,3.08-7.64,4.11-5.54,4.47-10.94A17,17,0,0,0,113.38,40c-2.54-2-5.68-3.27-7.79-5.71-4-4.63-3.44-12.4-8.31-16.1-2.09-1.59-12.44-6.32-15-5.73C71.66,14.93,68,16.17,67.79,11.86c-.16-2.88-5.69-1-8.57-1.11-7.76-.37-15.37.17-21.74,4.61S26,28.12,23.69,35.52A19.68,19.68,0,0,0,4.33,43.1C0,49,0,54.31,3.64,60.67A25,25,0,0,0,12.61,69.74Z"/><path class="cls-3" d="M68.62,16.43a19.55,19.55,0,0,1,11.59-5,23.07,23.07,0,0,1,25.58,23.13l-1-1.23h0A18.45,18.45,0,0,1,118.86,44.6a20.72,20.72,0,0,1,1,9.2,18.81,18.81,0,0,1-3.36,8.5.76.76,0,0,1-1.24-.88,16.13,16.13,0,0,0,2.81-7.82,14.8,14.8,0,0,0-1.45-8.08,16.7,16.7,0,0,0-12.31-9.78h0a1.25,1.25,0,0,1-1-1.23A21,21,0,0,0,74.74,14.88a38.32,38.32,0,0,0-5.3,2.61h0a.68.68,0,0,1-.81-1.07Z"/><path class="cls-3" d="M64.24,20.76a1.06,1.06,0,0,1,0-.81,2.86,2.86,0,0,1,.39-.5,4.55,4.55,0,0,1,1.06-.9,1.12,1.12,0,0,1,1.53,1.55l0,.05c-.2.31-.38.59-.6.9a3.2,3.2,0,0,1-.38.46,1,1,0,0,1-.75.16h-.06A1.35,1.35,0,0,1,64.24,20.76Z"/><path class="cls-3" d="M25.36,42.87a34.44,34.44,0,0,1-.92-4.26c-.11-.72-.21-1.44-.27-2.18,0-.37-.06-.73-.06-1.12a4.76,4.76,0,0,1,0-.6l.07-.55a29.52,29.52,0,0,1,2.38-8.45A29.88,29.88,0,0,1,71.31,13.91a1.25,1.25,0,1,1-1.47,2h0A27.31,27.31,0,0,0,39.23,14.6a27.73,27.73,0,0,0-10.64,12,27.33,27.33,0,0,0-2.23,7.81,21.12,21.12,0,0,0-.26,4,22.26,22.26,0,0,0,.48,4.1h0a.63.63,0,0,1-1.22.3Z"/><path class="cls-3" d="M11.16,69.74A19.25,19.25,0,0,1,1.47,59.62a19.63,19.63,0,0,1-1.47-7A19.78,19.78,0,0,1,25.05,33.33h0a1.25,1.25,0,0,1-.67,2.41h0a17.54,17.54,0,0,0-12.64,1A17.73,17.73,0,0,0,3,46.15,18,18,0,0,0,2.9,59.06a18.38,18.38,0,0,0,8.71,9.77.51.51,0,0,1-.44.91Z"/><path class="cls-4" d="M74.23,48.49H69a1.36,1.36,0,0,0-1.36,1.36v19.3a1.9,1.9,0,0,1-1.9,1.9H58.45a1.9,1.9,0,0,1-1.9-1.9V49.86a1.36,1.36,0,0,0-1.36-1.36H50a1.62,1.62,0,0,1-1.27-2.64L60,31.83a2.7,2.7,0,0,1,4.21,0l11.28,14A1.62,1.62,0,0,1,74.23,48.49Z"/><line class="cls-5" x1="56.55" y1="62.31" x2="56.55" y2="62.02"/><path class="cls-5" d="M56.55,56.61V49.86a1.36,1.36,0,0,0-1.36-1.36H50a1.62,1.62,0,0,1-1.27-2.64L60,31.83a2.7,2.7,0,0,1,4.21,0l11.28,14a1.62,1.62,0,0,1-1.27,2.64H69a1.36,1.36,0,0,0-1.36,1.36v19.3a1.9,1.9,0,0,1-1.9,1.9H58.45a1.9,1.9,0,0,1-1.9-1.9V66.27"/><path class="cls-6" d="M94.08,36h-.45A184.93,184.93,0,0,0,2.95,58.5l0,0"/><path class="cls-6" d="M119.49,56.1A56.6,56.6,0,0,0,93.63,36c-.41-.17-.82-.32-1.24-.47"/><line class="cls-7" x1="112.45" y1="3.17" x2="123.59" y2="14.9"/><line class="cls-7" x1="110.11" y1="14.9" x2="124.18" y2="2"/></g></g></svg>